999
Generated by Autodesk CAM - http://cam.autodesk.com
0
SECTION
2
HEADER
9
$ACADVER
1
AC1006
9
$ANGBASE
50
0
9
$ANGDIR
70
0
0
ENDSEC
0
SECTION
2
BLOCKS
0
ENDSEC
9
$EXTMIN
10
-203.039
20
0
30
0
9
$EXTMAX
10
203.039
20
318.016
30
15
0
SECTION
2
ENTITIES
0
LINE
8
1
62
1
10
-136.453
20
239.259
30
0
11
-136.281
21
239.31
31
0
0
LINE
8
1
62
1
10
-136.281
20
239.31
30
0
11
-136.08
21
239.378
31
0
0
LINE
8
1
62
1
10
-136.08
20
239.378
30
0
11
-135.888
21
239.452
31
0
0
LINE
8
1
62
1
10
-135.888
20
239.452
30
0
11
-135.704
21
239.532
31
0
0
LINE
8
1
62
1
10
-135.704
20
239.532
30
0
11
-135.531
21
239.616
31
0
0
LINE
8
1
62
1
10
-135.531
20
239.616
30
0
11
-135.365
21
239.707
31
0
0
LINE
8
1
62
1
10
-135.365
20
239.707
30
0
11
-135.209
21
239.803
31
0
0
LINE
8
1
62
1
10
-135.209
20
239.803
30
0
11
-135.061
21
239.905
31
0
0
LINE
8
1
62
1
10
-135.061
20
239.905
30
0
11
-134.923
21
240.012
31
0
0
LINE
8
1
62
1
10
-134.923
20
240.012
30
0
11
-134.793
21
240.125
31
0
0
LINE
8
1
62
1
10
-134.793
20
240.125
30
0
11
-134.673
21
240.243
31
0
0
LINE
8
1
62
1
10
-134.673
20
240.243
30
0
11
-134.56
21
240.366
31
0
0
LINE
8
1
62
1
10
-134.56
20
240.366
30
0
11
-134.457
21
240.495
31
0
0
LINE
8
1
62
1
10
-134.457
20
240.495
30
0
11
-134.362
21
240.629
31
0
0
LINE
8
1
62
1
10
-134.362
20
240.629
30
0
11
-134.275
21
240.769
31
0
0
LINE
8
1
62
1
10
-134.275
20
240.769
30
0
11
-134.197
21
240.914
31
0
0
LINE
8
1
62
1
10
-134.197
20
240.914
30
0
11
-134.128
21
241.064
31
0
0
LINE
8
1
62
1
10
-134.128
20
241.064
30
0
11
-134.067
21
241.217
31
0
0
LINE
8
1
62
1
10
-134.067
20
241.217
30
0
11
-133.969
21
241.543
31
0
0
LINE
8
1
62
1
10
-133.969
20
241.543
30
0
11
-133.904
21
241.886
31
0
0
LINE
8
1
62
1
10
-133.904
20
241.886
30
0
11
-133.871
21
242.246
31
0
0
LINE
8
1
62
1
10
-133.871
20
242.246
30
0
11
-133.87
21
242.619
31
0
0
LINE
8
1
62
1
10
-133.87
20
242.619
30
0
11
-133.9
21
243.004
31
0
0
LINE
8
1
62
1
10
-133.9
20
243.004
30
0
11
-133.958
21
243.397
31
0
0
LINE
8
1
62
1
10
-133.958
20
243.397
30
0
11
-134.043
21
243.794
31
0
0
LINE
8
1
62
1
10
-134.043
20
243.794
30
0
11
-134.154
21
244.189
31
0
0
LINE
8
1
62
1
10
-134.154
20
244.189
30
0
11
-134.288
21
244.578
31
0
0
LINE
8
1
62
1
10
-134.288
20
244.578
30
0
11
-134.442
21
244.954
31
0
0
LINE
8
1
62
1
10
-134.442
20
244.954
30
0
11
-134.613
21
245.311
31
0
0
LINE
8
1
62
1
10
-134.613
20
245.311
30
0
11
-134.798
21
245.644
31
0
0
LINE
8
1
62
1
10
-134.798
20
245.644
30
0
11
-134.993
21
245.944
31
0
0
LINE
8
1
62
1
10
-134.993
20
245.944
30
0
11
-135.092
21
246.079
31
0
0
LINE
8
1
62
1
10
-135.092
20
246.079
30
0
11
-135.193
21
246.205
31
0
0
LINE
8
1
62
1
10
-135.193
20
246.205
30
0
11
-135.295
21
246.319
31
0
0
LINE
8
1
62
1
10
-135.295
20
246.319
30
0
11
-135.396
21
246.423
31
0
0
LINE
8
1
62
1
10
-135.396
20
246.423
30
0
11
-135.497
21
246.514
31
0
0
LINE
8
1
62
1
10
-135.497
20
246.514
30
0
11
-135.597
21
246.591
31
0
0
LINE
8
1
62
1
10
-135.597
20
246.591
30
0
11
-135.695
21
246.656
31
0
0
LINE
8
1
62
1
10
-135.695
20
246.656
30
0
11
-135.79
21
246.708
31
0
0
LINE
8
1
62
1
10
-135.79
20
246.708
30
0
11
-135.882
21
246.745
31
0
0
LINE
8
1
62
1
10
-135.882
20
246.745
30
0
11
-135.97
21
246.769
31
0
0
LINE
8
1
62
1
10
-135.97
20
246.769
30
0
11
-136.054
21
246.781
31
0
0
LINE
8
1
62
1
10
-136.054
20
246.781
30
0
11
-136.135
21
246.78
31
0
0
LINE
8
1
62
1
10
-136.135
20
246.78
30
0
11
-136.211
21
246.767
31
0
0
LINE
8
1
62
1
10
-136.211
20
246.767
30
0
11
-136.284
21
246.742
31
0
0
LINE
8
1
62
1
10
-136.284
20
246.742
30
0
11
-136.355
21
246.705
31
0
0
LINE
8
1
62
1
10
-136.355
20
246.705
30
0
11
-136.423
21
246.655
31
0
0
LINE
8
1
62
1
10
-136.423
20
246.655
30
0
11
-136.487
21
246.594
31
0
0
LINE
8
1
62
1
10
-136.487
20
246.594
30
0
11
-136.549
21
246.52
31
0
0
LINE
8
1
62
1
10
-136.549
20
246.52
30
0
11
-136.606
21
246.435
31
0
0
LINE
8
1
62
1
10
-136.606
20
246.435
30
0
11
-136.658
21
246.34
31
0
0
LINE
8
1
62
1
10
-136.658
20
246.34
30
0
11
-136.749
21
246.121
31
0
0
LINE
8
1
62
1
10
-136.749
20
246.121
30
0
11
-136.816
21
245.875
31
0
0
LINE
8
1
62
1
10
-136.816
20
245.875
30
0
11
-136.858
21
245.614
31
0
0
LINE
8
1
62
1
10
-136.858
20
245.614
30
0
11
-136.876
21
245.349
31
0
0
LINE
8
1
62
1
10
-136.876
20
245.349
30
0
11
-136.868
21
245.09
31
0
0
LINE
8
1
62
1
10
-136.868
20
245.09
30
0
11
-136.835
21
244.851
31
0
0
LINE
8
1
62
1
10
-136.835
20
244.851
30
0
11
-136.776
21
244.638
31
0
0
LINE
8
1
62
1
10
-136.776
20
244.638
30
0
11
-136.74
21
244.548
31
0
0
LINE
8
1
62
1
10
-136.74
20
244.548
30
0
11
-136.699
21
244.466
31
0
0
LINE
8
1
62
1
10
-136.699
20
244.466
30
0
11
-136.652
21
244.394
31
0
0
LINE
8
1
62
1
10
-136.652
20
244.394
30
0
11
-136.603
21
244.334
31
0
0
LINE
8
1
62
1
10
-136.603
20
244.334
30
0
11
-136.549
21
244.284
31
0
0
LINE
8
1
62
1
10
-136.549
20
244.284
30
0
11
-136.492
21
244.244
31
0
0
LINE
8
1
62
1
10
-136.492
20
244.244
30
0
11
-136.432
21
244.214
31
0
0
LINE
8
1
62
1
10
-136.432
20
244.214
30
0
11
-136.37
21
244.192
31
0
0
LINE
8
1
62
1
10
-136.37
20
244.192
30
0
11
-136.226
21
244.17
31
0
0
LINE
8
1
62
1
10
-136.226
20
244.17
30
0
11
-136.071
21
244.178
31
0
0
LINE
8
1
62
1
10
-136.071
20
244.178
30
0
11
-135.903
21
244.206
31
0
0
LINE
8
1
62
1
10
-135.903
20
244.206
30
0
11
-135.557
21
244.283
31
0
0
LINE
8
1
62
1
10
-135.557
20
244.283
30
0
11
-135.553
21
244.284
31
0
0
LINE
8
1
62
1
10
-135.553
20
244.284
30
0
11
-135.389
21
244.31
31
0
0
ARC
8
1
62
1
10
-135.376
20
244.231
30
0
40
0.08
50
91.136585
51
98.998763
0
LINE
8
1
62
1
10
-135.378
20
244.311
30
0
11
-135.227
21
244.314
31
0
0
ARC
8
1
62
1
10
-135.225
20
244.234
30
0
40
0.08
50
80.936482
51
91.136585
0
LINE
8
1
62
1
10
-135.212
20
244.313
30
0
11
-135.143
21
244.302
31
0
0
ARC
8
1
62
1
10
-135.156
20
244.223
30
0
40
0.08
50
73.466144
51
80.93476
0
LINE
8
1
62
1
10
-135.133
20
244.3
30
0
11
-135.069
21
244.281
31
0
0
ARC
8
1
62
1
10
-135.092
20
244.204
30
0
40
0.08
50
64.612763
51
73.466144
0
LINE
8
1
62
1
10
-135.058
20
244.276
30
0
11
-134.999
21
244.248
31
0
0
ARC
8
1
62
1
10
-135.033
20
244.176
30
0
40
0.08
50
53.132288
51
64.612763
0
LINE
8
1
62
1
10
-134.985
20
244.24
30
0
11
-134.933
21
244.201
31
0
0
ARC
8
1
62
1
10
-134.981
20
244.137
30
0
40
0.08
50
43.810051
51
53.132288
0
LINE
8
1
62
1
10
-134.923
20
244.192
30
0
11
-134.876
21
244.143
31
0
0
ARC
8
1
62
1
10
-134.934
20
244.088
30
0
40
0.08
50
33.020202
51
43.802165
0
LINE
8
1
62
1
10
-134.867
20
244.132
30
0
11
-134.828
21
244.072
31
0
0
ARC
8
1
62
1
10
-134.895
20
244.028
30
0
40
0.08
50
24.87893
51
33.020202
0
LINE
8
1
62
1
10
-134.822
20
244.062
30
0
11
-134.79
21
243.993
31
0
0
ARC
8
1
62
1
10
-134.863
20
243.959
30
0
40
0.08
50
16.703431
51
24.87893
0
LINE
8
1
62
1
10
-134.786
20
243.982
30
0
11
-134.762
21
243.902
31
0
0
LINE
8
1
62
1
10
-134.762
20
243.902
30
0
11
-134.76
21
243.893
31
0
0
LINE
8
1
62
1
10
-134.76
20
243.893
30
0
11
-134.744
21
243.805
31
0
0
LINE
8
1
62
1
10
-134.744
20
243.805
30
0
11
-134.743
21
243.798
31
0
0
LINE
8
1
62
1
10
-134.743
20
243.798
30
0
11
-134.735
21
243.7
31
0
0
LINE
8
1
62
1
10
-134.735
20
243.7
30
0
11
-134.735
21
243.692
31
0
0
LINE
8
1
62
1
10
-134.735
20
243.692
30
0
11
-134.736
21
243.587
31
0
0
LINE
8
1
62
1
10
-134.736
20
243.587
30
0
11
-134.736
21
243.58
31
0
0
LINE
8
1
62
1
10
-134.736
20
243.58
30
0
11
-134.747
21
243.468
31
0
0
LINE
8
1
62
1
10
-134.747
20
243.468
30
0
11
-134.748
21
243.463
31
0
0
LINE
8
1
62
1
10
-134.748
20
243.463
30
0
11
-134.768
21
243.345
31
0
0
LINE
8
1
62
1
10
-134.768
20
243.345
30
0
11
-134.769
21
243.339
31
0
0
LINE
8
1
62
1
10
-134.769
20
243.339
30
0
11
-134.799
21
243.217
31
0
0
LINE
8
1
62
1
10
-134.799
20
243.217
30
0
11
-134.801
21
243.212
31
0
0
LINE
8
1
62
1
10
-134.801
20
243.212
30
0
11
-134.841
21
243.085
31
0
0
LINE
8
1
62
1
10
-134.841
20
243.085
30
0
11
-134.842
21
243.08
31
0
0
LINE
8
1
62
1
10
-134.842
20
243.08
30
0
11
-134.892
21
242.952
31
0
0
LINE
8
1
62
1
10
-134.892
20
242.952
30
0
11
-134.895
21
242.947
31
0
0
LINE
8
1
62
1
10
-134.895
20
242.947
30
0
11
-134.956
21
242.817
31
0
0
LINE
8
1
62
1
10
-134.956
20
242.817
30
0
11
-134.958
21
242.812
31
0
0
LINE
8
1
62
1
10
-134.958
20
242.812
30
0
11
-135.029
21
242.683
31
0
0
LINE
8
1
62
1
10
-135.029
20
242.683
30
0
11
-135.031
21
242.679
31
0
0
LINE
8
1
62
1
10
-135.031
20
242.679
30
0
11
-135.113
21
242.55
31
0
0
LINE
8
1
62
1
10
-135.113
20
242.55
30
0
11
-135.117
21
242.545
31
0
0
LINE
8
1
62
1
10
-135.117
20
242.545
30
0
11
-135.21
21
242.42
31
0
0
LINE
8
1
62
1
10
-135.21
20
242.42
30
0
11
-135.213
21
242.416
31
0
0
LINE
8
1
62
1
10
-135.213
20
242.416
30
0
11
-135.318
21
242.294
31
0
0
LINE
8
1
62
1
10
-135.318
20
242.294
30
0
11
-135.322
21
242.29
31
0
0
LINE
8
1
62
1
10
-135.322
20
242.29
30
0
11
-135.438
21
242.172
31
0
0
LINE
8
1
62
1
10
-135.438
20
242.172
30
0
11
-135.442
21
242.168
31
0
0
LINE
8
1
62
1
10
-135.442
20
242.168
30
0
11
-135.569
21
242.057
31
0
0
LINE
8
1
62
1
10
-135.569
20
242.057
30
0
11
-135.574
21
242.053
31
0
0
LINE
8
1
62
1
10
-135.574
20
242.053
30
0
11
-135.713
21
241.948
31
0
0
LINE
8
1
62
1
10
-135.713
20
241.948
30
0
11
-135.718
21
241.945
31
0
0
LINE
8
1
62
1
10
-135.718
20
241.945
30
0
11
-135.868
21
241.848
31
0
0
LINE
8
1
62
1
10
-135.868
20
241.848
30
0
11
-135.872
21
241.845
31
0
0
LINE
8
1
62
1
10
-135.872
20
241.845
30
0
11
-136.034
21
241.755
31
0
0
LINE
8
1
62
1
10
-136.034
20
241.755
30
0
11
-136.039
21
241.753
31
0
0
LINE
8
1
62
1
10
-136.039
20
241.753
30
0
11
-136.212
21
241.672
31
0
0
LINE
8
1
62
1
10
-136.212
20
241.672
30
0
11
-136.217
21
241.669
31
0
0
LINE
8
1
62
1
10
-136.217
20
241.669
30
0
11
-136.402
21
241.597
31
0
0
ARC
8
1
62
1
10
-136.431
20
241.672
30
0
40
0.08
50
-97.893632
51
-68.730257
0
LINE
8
1
62
1
10
-136.442
20
241.593
30
0
11
-136.745
21
241.635
31
0
0
LINE
8
1
62
1
10
-136.745
20
241.635
30
0
11
-136.752
21
241.636
31
0
0
LINE
8
1
62
1
10
-136.752
20
241.636
30
0
11
-137.036
21
241.7
31
0
0
LINE
8
1
62
1
10
-137.036
20
241.7
30
0
11
-137.043
21
241.702
31
0
0
LINE
8
1
62
1
10
-137.043
20
241.702
30
0
11
-137.31
21
241.788
31
0
0
LINE
8
1
62
1
10
-137.31
20
241.788
30
0
11
-137.317
21
241.791
31
0
0
LINE
8
1
62
1
10
-137.317
20
241.791
30
0
11
-137.565
21
241.899
31
0
0
LINE
8
1
62
1
10
-137.565
20
241.899
30
0
11
-137.572
21
241.902
31
0
0
LINE
8
1
62
1
10
-137.572
20
241.902
30
0
11
-137.801
21
242.031
31
0
0
LINE
8
1
62
1
10
-137.801
20
242.031
30
0
11
-137.809
21
242.036
31
0
0
LINE
8
1
62
1
10
-137.809
20
242.036
30
0
11
-138.02
21
242.187
31
0
0
LINE
8
1
62
1
10
-138.02
20
242.187
30
0
11
-138.026
21
242.192
31
0
0
LINE
8
1
62
1
10
-138.026
20
242.192
30
0
11
-138.219
21
242.364
31
0
0
LINE
8
1
62
1
10
-138.219
20
242.364
30
0
11
-138.226
21
242.371
31
0
0
LINE
8
1
62
1
10
-138.226
20
242.371
30
0
11
-138.4
21
242.565
31
0
0
LINE
8
1
62
1
10
-138.4
20
242.565
30
0
11
-138.405
21
242.571
31
0
0
LINE
8
1
62
1
10
-138.405
20
242.571
30
0
11
-138.561
21
242.785
31
0
0
LINE
8
1
62
1
10
-138.561
20
242.785
30
0
11
-138.565
21
242.792
31
0
0
LINE
8
1
62
1
10
-138.565
20
242.792
30
0
11
-138.701
21
243.025
31
0
0
LINE
8
1
62
1
10
-138.701
20
243.025
30
0
11
-138.704
21
243.031
31
0
0
LINE
8
1
62
1
10
-138.704
20
243.031
30
0
11
-138.822
21
243.284
31
0
0
LINE
8
1
62
1
10
-138.822
20
243.284
30
0
11
-138.825
21
243.291
31
0
0
LINE
8
1
62
1
10
-138.825
20
243.291
30
0
11
-138.923
21
243.562
31
0
0
LINE
8
1
62
1
10
-138.923
20
243.562
30
0
11
-138.925
21
243.568
31
0
0
LINE
8
1
62
1
10
-138.925
20
243.568
30
0
11
-139.004
21
243.855
31
0
0
LINE
8
1
62
1
10
-139.004
20
243.855
30
0
11
-139.006
21
243.861
31
0
0
LINE
8
1
62
1
10
-139.006
20
243.861
30
0
11
-139.065
21
244.164
31
0
0
LINE
8
1
62
1
10
-139.065
20
244.164
30
0
11
-139.065
21
244.169
31
0
0
LINE
8
1
62
1
10
-139.065
20
244.169
30
0
11
-139.104
21
244.485
31
0
0
LINE
8
1
62
1
10
-139.104
20
244.485
30
0
11
-139.105
21
244.491
31
0
0
LINE
8
1
62
1
10
-139.105
20
244.491
30
0
11
-139.123
21
244.818
31
0
0
LINE
8
1
62
1
10
-139.123
20
244.818
30
0
11
-139.123
21
244.822
31
0
0
LINE
8
1
62
1
10
-139.123
20
244.822
30
0
11
-139.121
21
245.158
31
0
0
LINE
8
1
62
1
10
-139.121
20
245.158
30
0
11
-139.121
21
245.163
31
0
0
LINE
8
1
62
1
10
-139.121
20
245.163
30
0
11
-139.099
21
245.504
31
0
0
LINE
8
1
62
1
10
-139.099
20
245.504
30
0
11
-139.098
21
245.509
31
0
0
LINE
8
1
62
1
10
-139.098
20
245.509
30
0
11
-139.054
21
245.854
31
0
0
LINE
8
1
62
1
10
-139.054
20
245.854
30
0
11
-139.054
21
245.859
31
0
0
LINE
8
1
62
1
10
-139.054
20
245.859
30
0
11
-138.988
21
246.205
31
0
0
LINE
8
1
62
1
10
-138.988
20
246.205
30
0
11
-138.987
21
246.21
31
0
0
LINE
8
1
62
1
10
-138.987
20
246.21
30
0
11
-138.9
21
246.551
31
0
0
LINE
8
1
62
1
10
-138.9
20
246.551
30
0
11
-138.898
21
246.556
31
0
0
LINE
8
1
62
1
10
-138.898
20
246.556
30
0
11
-138.789
21
246.892
31
0
0
LINE
8
1
62
1
10
-138.789
20
246.892
30
0
11
-138.787
21
246.897
31
0
0
LINE
8
1
62
1
10
-138.787
20
246.897
30
0
11
-138.656
21
247.222
31
0
0
LINE
8
1
62
1
10
-138.656
20
247.222
30
0
11
-138.654
21
247.227
31
0
0
LINE
8
1
62
1
10
-138.654
20
247.227
30
0
11
-138.5
21
247.54
31
0
0
LINE
8
1
62
1
10
-138.5
20
247.54
30
0
11
-138.497
21
247.546
31
0
0
LINE
8
1
62
1
10
-138.497
20
247.546
30
0
11
-138.322
21
247.842
31
0
0
LINE
8
1
62
1
10
-138.322
20
247.842
30
0
11
-138.318
21
247.847
31
0
0
LINE
8
1
62
1
10
-138.318
20
247.847
30
0
11
-138.121
21
248.123
31
0
0
LINE
8
1
62
1
10
-138.121
20
248.123
30
0
11
-138.116
21
248.129
31
0
0
LINE
8
1
62
1
10
-138.116
20
248.129
30
0
11
-137.896
21
248.383
31
0
0
LINE
8
1
62
1
10
-137.896
20
248.383
30
0
11
-137.891
21
248.389
31
0
0
LINE
8
1
62
1
10
-137.891
20
248.389
30
0
11
-137.651
21
248.618
31
0
0
LINE
8
1
62
1
10
-137.651
20
248.618
30
0
11
-137.645
21
248.624
31
0
0
LINE
8
1
62
1
10
-137.645
20
248.624
30
0
11
-137.383
21
248.824
31
0
0
LINE
8
1
62
1
10
-137.383
20
248.824
30
0
11
-137.375
21
248.829
31
0
0
LINE
8
1
62
1
10
-137.375
20
248.829
30
0
11
-137.093
21
248.998
31
0
0
LINE
8
1
62
1
10
-137.093
20
248.998
30
0
11
-137.085
21
249.002
31
0
0
LINE
8
1
62
1
10
-137.085
20
249.002
30
0
11
-136.928
21
249.074
31
0
0
ARC
8
1
62
1
10
-136.525
20
244.171
30
0
40
4.92
50
94.70321
51
178.925546
0
ARC
8
1
62
1
10
-136.525
20
244.17
30
0
40
4.92
50
178.922656
51
-89.499384
0
LINE
8
1
62
1
10
-136.482
20
239.251
30
0
11
-136.453
21
239.259
31
0
0
LINE
8
1
62
1
10
-136.454
20
236.007
30
0
11
-136.534
21
236.002
31
0
0
LINE
8
1
62
1
10
-136.534
20
236.002
30
0
11
-136.539
21
236.002
31
0
0
LINE
8
1
62
1
10
-136.539
20
236.002
30
0
11
-137.034
21
236.003
31
0
0
LINE
8
1
62
1
10
-137.034
20
236.003
30
0
11
-137.04
21
236.003
31
0
0
LINE
8
1
62
1
10
-137.04
20
236.003
30
0
11
-137.529
21
236.038
31
0
0
LINE
8
1
62
1
10
-137.529
20
236.038
30
0
11
-137.535
21
236.039
31
0
0
LINE
8
1
62
1
10
-137.535
20
236.039
30
0
11
-138.015
21
236.109
31
0
0
LINE
8
1
62
1
10
-138.015
20
236.109
30
0
11
-138.02
21
236.11
31
0
0
LINE
8
1
62
1
10
-138.02
20
236.11
30
0
11
-138.493
21
236.215
31
0
0
LINE
8
1
62
1
10
-138.493
20
236.215
30
0
11
-138.499
21
236.216
31
0
0
LINE
8
1
62
1
10
-138.499
20
236.216
30
0
11
-138.962
21
236.355
31
0
0
LINE
8
1
62
1
10
-138.962
20
236.355
30
0
11
-138.967
21
236.357
31
0
0
LINE
8
1
62
1
10
-138.967
20
236.357
30
0
11
-139.422
21
236.53
31
0
0
LINE
8
1
62
1
10
-139.422
20
236.53
30
0
11
-139.428
21
236.532
31
0
0
LINE
8
1
62
1
10
-139.428
20
236.532
30
0
11
-139.872
21
236.738
31
0
0
LINE
8
1
62
1
10
-139.872
20
236.738
30
0
11
-139.877
21
236.741
31
0
0
LINE
8
1
62
1
10
-139.877
20
236.741
30
0
11
-140.31
21
236.98
31
0
0
LINE
8
1
62
1
10
-140.31
20
236.98
30
0
11
-140.314
21
236.983
31
0
0
LINE
8
1
62
1
10
-140.314
20
236.983
30
0
11
-140.735
21
237.254
31
0
0
LINE
8
1
62
1
10
-140.735
20
237.254
30
0
11
-140.74
21
237.257
31
0
0
LINE
8
1
62
1
10
-140.74
20
237.257
30
0
11
-141.148
21
237.559
31
0
0
LINE
8
1
62
1
10
-141.148
20
237.559
30
0
11
-141.152
21
237.562
31
0
0
LINE
8
1
62
1
10
-141.152
20
237.562
30
0
11
-141.545
21
237.893
31
0
0
LINE
8
1
62
1
10
-141.545
20
237.893
30
0
11
-141.548
21
237.896
31
0
0
LINE
8
1
62
1
10
-141.548
20
237.896
30
0
11
-141.925
21
238.255
31
0
0
LINE
8
1
62
1
10
-141.925
20
238.255
30
0
11
-141.928
21
238.258
31
0
0
LINE
8
1
62
1
10
-141.928
20
238.258
30
0
11
-142.288
21
238.642
31
0
0
LINE
8
1
62
1
10
-142.288
20
238.642
30
0
11
-142.292
21
238.646
31
0
0
LINE
8
1
62
1
10
-142.292
20
238.646
30
0
11
-142.632
21
239.055
31
0
0
LINE
8
1
62
1
10
-142.632
20
239.055
30
0
11
-142.634
21
239.058
31
0
0
LINE
8
1
62
1
10
-142.634
20
239.058
30
0
11
-142.954
21
239.488
31
0
0
LINE
8
1
62
1
10
-142.954
20
239.488
30
0
11
-142.957
21
239.492
31
0
0
LINE
8
1
62
1
10
-142.957
20
239.492
30
0
11
-143.253
21
239.941
31
0
0
LINE
8
1
62
1
10
-143.253
20
239.941
30
0
11
-143.255
21
239.945
31
0
0
LINE
8
1
62
1
10
-143.255
20
239.945
30
0
11
-143.527
21
240.411
31
0
0
LINE
8
1
62
1
10
-143.527
20
240.411
30
0
11
-143.529
21
240.415
31
0
0
LINE
8
1
62
1
10
-143.529
20
240.415
30
0
11
-143.774
21
240.895
31
0
0
LINE
8
1
62
1
10
-143.774
20
240.895
30
0
11
-143.776
21
240.899
31
0
0
LINE
8
1
62
1
10
-143.776
20
240.899
30
0
11
-143.992
21
241.39
31
0
0
LINE
8
1
62
1
10
-143.992
20
241.39
30
0
11
-143.994
21
241.394
31
0
0
LINE
8
1
62
1
10
-143.994
20
241.394
30
0
11
-144.18
21
241.895
31
0
0
LINE
8
1
62
1
10
-144.18
20
241.895
30
0
11
-144.182
21
241.9
31
0
0
LINE
8
1
62
1
10
-144.182
20
241.9
30
0
11
-144.335
21
242.407
31
0
0
LINE
8
1
62
1
10
-144.335
20
242.407
30
0
11
-144.336
21
242.412
31
0
0
LINE
8
1
62
1
10
-144.336
20
242.412
30
0
11
-144.456
21
242.924
31
0
0
LINE
8
1
62
1
10
-144.456
20
242.924
30
0
11
-144.457
21
242.929
31
0
0
LINE
8
1
62
1
10
-144.457
20
242.929
30
0
11
-144.54
21
243.442
31
0
0
LINE
8
1
62
1
10
-144.54
20
243.442
30
0
11
-144.541
21
243.448
31
0
0
LINE
8
1
62
1
10
-144.541
20
243.448
30
0
11
-144.588
21
243.96
31
0
0
LINE
8
1
62
1
10
-144.588
20
243.96
30
0
11
-144.588
21
243.966
31
0
0
LINE
8
1
62
1
10
-144.588
20
243.966
30
0
11
-144.596
21
244.476
31
0
0
LINE
8
1
62
1
10
-144.596
20
244.476
30
0
11
-144.596
21
244.48
31
0
0
LINE
8
1
62
1
10
-144.596
20
244.48
30
0
11
-144.585
21
244.733
31
0
0
LINE
8
1
62
1
10
-144.585
20
244.733
30
0
11
-144.585
21
244.737
31
0
0
LINE
8
1
62
1
10
-144.585
20
244.737
30
0
11
-144.564
21
244.989
31
0
0
LINE
8
1
62
1
10
-144.564
20
244.989
30
0
11
-144.563
21
244.992
31
0
0
LINE
8
1
62
1
10
-144.563
20
244.992
30
0
11
-144.526
21
245.276
31
0
0
LINE
8
1
62
1
10
-144.526
20
245.276
30
0
11
-144.526
21
245.28
31
0
0
LINE
8
1
62
1
10
-144.526
20
245.28
30
0
11
-144.477
21
245.56
31
0
0
LINE
8
1
62
1
10
-144.477
20
245.56
30
0
11
-144.476
21
245.564
31
0
0
LINE
8
1
62
1
10
-144.476
20
245.564
30
0
11
-144.413
21
245.843
31
0
0
LINE
8
1
62
1
10
-144.413
20
245.843
30
0
11
-144.412
21
245.846
31
0
0
LINE
8
1
62
1
10
-144.412
20
245.846
30
0
11
-144.336
21
246.121
31
0
0
LINE
8
1
62
1
10
-144.336
20
246.121
30
0
11
-144.335
21
246.125
31
0
0
LINE
8
1
62
1
10
-144.335
20
246.125
30
0
11
-144.245
21
246.397
31
0
0
LINE
8
1
62
1
10
-144.245
20
246.397
30
0
11
-144.244
21
246.401
31
0
0
LINE
8
1
62
1
10
-144.244
20
246.401
30
0
11
-144.14
21
246.67
31
0
0
LINE
8
1
62
1
10
-144.14
20
246.67
30
0
11
-144.138
21
246.673
31
0
0
LINE
8
1
62
1
10
-144.138
20
246.673
30
0
11
-144.021
21
246.938
31
0
0
LINE
8
1
62
1
10
-144.021
20
246.938
30
0
11
-144.02
21
246.942
31
0
0
LINE
8
1
62
1
10
-144.02
20
246.942
30
0
11
-143.89
21
247.204
31
0
0
LINE
8
1
62
1
10
-143.89
20
247.204
30
0
11
-143.888
21
247.207
31
0
0
LINE
8
1
62
1
10
-143.888
20
247.207
30
0
11
-143.743
21
247.465
31
0
0
LINE
8
1
62
1
10
-143.743
20
247.465
30
0
11
-143.741
21
247.468
31
0
0
LINE
8
1
62
1
10
-143.741
20
247.468
30
0
11
-143.583
21
247.722
31
0
0
LINE
8
1
62
1
10
-143.583
20
247.722
30
0
11
-143.581
21
247.725
31
0
0
LINE
8
1
62
1
10
-143.581
20
247.725
30
0
11
-143.409
21
247.976
31
0
0
LINE
8
1
62
1
10
-143.409
20
247.976
30
0
11
-143.407
21
247.979
31
0
0
LINE
8
1
62
1
10
-143.407
20
247.979
30
0
11
-143.221
21
248.225
31
0
0
LINE
8
1
62
1
10
-143.221
20
248.225
30
0
11
-143.219
21
248.228
31
0
0
LINE
8
1
62
1
10
-143.219
20
248.228
30
0
11
-143.02
21
248.47
31
0
0
LINE
8
1
62
1
10
-143.02
20
248.47
30
0
11
-143.017
21
248.472
31
0
0
LINE
8
1
62
1
10
-143.017
20
248.472
30
0
11
-142.803
21
248.71
31
0
0
LINE
8
1
62
1
10
-142.803
20
248.71
30
0
11
-142.801
21
248.713
31
0
0
LINE
8
1
62
1
10
-142.801
20
248.713
30
0
11
-142.575
21
248.946
31
0
0
LINE
8
1
62
1
10
-142.575
20
248.946
30
0
11
-142.573
21
248.948
31
0
0
LINE
8
1
62
1
10
-142.573
20
248.948
30
0
11
-142.332
21
249.177
31
0
0
LINE
8
1
62
1
10
-142.332
20
249.177
30
0
11
-142.33
21
249.179
31
0
0
LINE
8
1
62
1
10
-142.33
20
249.179
30
0
11
-142.076
21
249.404
31
0
0
LINE
8
1
62
1
10
-142.076
20
249.404
30
0
11
-142.074
21
249.406
31
0
0
LINE
8
1
62
1
10
-142.074
20
249.406
30
0
11
-141.807
21
249.626
31
0
0
LINE
8
1
62
1
10
-141.807
20
249.626
30
0
11
-141.805
21
249.627
31
0
0
LINE
8
1
62
1
10
-141.805
20
249.627
30
0
11
-141.524
21
249.843
31
0
0
LINE
8
1
62
1
10
-141.524
20
249.843
30
0
11
-141.522
21
249.845
31
0
0
LINE
8
1
62
1
10
-141.522
20
249.845
30
0
11
-141.227
21
250.056
31
0
0
LINE
8
1
62
1
10
-141.227
20
250.056
30
0
11
-141.224
21
250.057
31
0
0
LINE
8
1
62
1
10
-141.224
20
250.057
30
0
11
-140.916
21
250.264
31
0
0
LINE
8
1
62
1
10
-140.916
20
250.264
30
0
11
-140.915
21
250.265
31
0
0
LINE
8
1
62
1
10
-140.915
20
250.265
30
0
11
-140.594
21
250.467
31
0
0
LINE
8
1
62
1
10
-140.594
20
250.467
30
0
11
-140.592
21
250.468
31
0
0
LINE
8
1
62
1
10
-140.592
20
250.468
30
0
11
-140.258
21
250.666
31
0
0
LINE
8
1
62
1
10
-140.258
20
250.666
30
0
11
-140.256
21
250.667
31
0
0
LINE
8
1
62
1
10
-140.256
20
250.667
30
0
11
-139.908
21
250.86
31
0
0
LINE
8
1
62
1
10
-139.908
20
250.86
30
0
11
-139.906
21
250.861
31
0
0
LINE
8
1
62
1
10
-139.906
20
250.861
30
0
11
-139.545
21
251.049
31
0
0
LINE
8
1
62
1
10
-139.545
20
251.049
30
0
11
-139.543
21
251.05
31
0
0
LINE
8
1
62
1
10
-139.543
20
251.05
30
0
11
-139.169
21
251.234
31
0
0
LINE
8
1
62
1
10
-139.169
20
251.234
30
0
11
-139.168
21
251.235
31
0
0
LINE
8
1
62
1
10
-139.168
20
251.235
30
0
11
-138.781
21
251.414
31
0
0
LINE
8
1
62
1
10
-138.781
20
251.414
30
0
11
-138.779
21
251.414
31
0
0
LINE
8
1
62
1
10
-138.779
20
251.414
30
0
11
-138.379
21
251.589
31
0
0
LINE
8
1
62
1
10
-138.379
20
251.589
30
0
11
-138.377
21
251.59
31
0
0
LINE
8
1
62
1
10
-138.377
20
251.59
30
0
11
-137.963
21
251.76
31
0
0
LINE
8
1
62
1
10
-137.963
20
251.76
30
0
11
-137.962
21
251.761
31
0
0
LINE
8
1
62
1
10
-137.962
20
251.761
30
0
11
-137.536
21
251.927
31
0
0
LINE
8
1
62
1
10
-137.536
20
251.927
30
0
11
-137.535
21
251.927
31
0
0
LINE
8
1
62
1
10
-137.535
20
251.927
30
0
11
-137.096
21
252.088
31
0
0
LINE
8
1
62
1
10
-137.096
20
252.088
30
0
11
-137.094
21
252.089
31
0
0
LINE
8
1
62
1
10
-137.094
20
252.089
30
0
11
-136.642
21
252.246
31
0
0
ARC
8
1
62
1
10
-136.616
20
252.17
30
0
40
0.08
50
90
51
109.150288
0
LINE
8
1
62
1
10
-136.616
20
252.25
30
0
11
-134.525
21
252.25
31
0
0
ARC
8
1
62
1
10
-134.525
20
252.17
30
0
40
0.08
50
0
51
90
0
LINE
8
1
62
1
10
-134.445
20
252.17
30
0
11
-134.445
21
248.25
31
0
0
LINE
8
1
62
1
10
-134.445
20
248.25
30
0
11
-130.605
21
248.25
31
0
0
LINE
8
1
62
1
10
-130.605
20
248.25
30
0
11
-130.605
21
252.17
31
0
0
ARC
8
1
62
1
10
-130.525
20
252.17
30
0
40
0.08
50
90
51
180
0
LINE
8
1
62
1
10
-130.525
20
252.25
30
0
11
-128.525
21
252.25
31
0
0
ARC
8
1
62
1
10
-128.525
20
252.17
30
0
40
0.08
50
0
51
90
0
LINE
8
1
62
1
10
-128.445
20
252.17
30
0
11
-128.445
21
247.17
31
0
0
ARC
8
1
62
1
10
-128.525
20
247.17
30
0
40
0.08
50
-90
51
0
0
LINE
8
1
62
1
10
-128.525
20
247.09
30
0
11
-130.954
21
247.09
31
0
0
LINE
8
1
62
1
10
-130.954
20
247.09
30
0
11
-130.75
21
246.898
31
0
0
LINE
8
1
62
1
10
-130.75
20
246.898
30
0
11
-130.748
21
246.896
31
0
0
LINE
8
1
62
1
10
-130.748
20
246.896
30
0
11
-130.41
21
246.551
31
0
0
LINE
8
1
62
1
10
-130.41
20
246.551
30
0
11
-130.407
21
246.548
31
0
0
LINE
8
1
62
1
10
-130.407
20
246.548
30
0
11
-130.085
21
246.189
31
0
0
LINE
8
1
62
1
10
-130.085
20
246.189
30
0
11
-130.083
21
246.187
31
0
0
LINE
8
1
62
1
10
-130.083
20
246.187
30
0
11
-129.778
21
245.818
31
0
0
LINE
8
1
62
1
10
-129.778
20
245.818
30
0
11
-129.776
21
245.815
31
0
0
LINE
8
1
62
1
10
-129.776
20
245.815
30
0
11
-129.49
21
245.437
31
0
0
LINE
8
1
62
1
10
-129.49
20
245.437
30
0
11
-129.488
21
245.434
31
0
0
LINE
8
1
62
1
10
-129.488
20
245.434
30
0
11
-129.224
21
245.049
31
0
0
LINE
8
1
62
1
10
-129.224
20
245.049
30
0
11
-129.222
21
245.046
31
0
0
LINE
8
1
62
1
10
-129.222
20
245.046
30
0
11
-128.981
21
244.655
31
0
0
LINE
8
1
62
1
10
-128.981
20
244.655
30
0
11
-128.979
21
244.652
31
0
0
LINE
8
1
62
1
10
-128.979
20
244.652
30
0
11
-128.763
21
244.259
31
0
0
LINE
8
1
62
1
10
-128.763
20
244.259
30
0
11
-128.761
21
244.255
31
0
0
LINE
8
1
62
1
10
-128.761
20
244.255
30
0
11
-128.571
21
243.861
31
0
0
LINE
8
1
62
1
10
-128.571
20
243.861
30
0
11
-128.569
21
243.856
31
0
0
LINE
8
1
62
1
10
-128.569
20
243.856
30
0
11
-128.408
21
243.462
31
0
0
LINE
8
1
62
1
10
-128.408
20
243.462
30
0
11
-128.406
21
243.458
31
0
0
LINE
8
1
62
1
10
-128.406
20
243.458
30
0
11
-128.273
21
243.067
31
0
0
LINE
8
1
62
1
10
-128.273
20
243.067
30
0
11
-128.272
21
243.061
31
0
0
LINE
8
1
62
1
10
-128.272
20
243.061
30
0
11
-128.17
21
242.672
31
0
0
LINE
8
1
62
1
10
-128.17
20
242.672
30
0
11
-128.168
21
242.667
31
0
0
LINE
8
1
62
1
10
-128.168
20
242.667
30
0
11
-128.097
21
242.284
31
0
0
LINE
8
1
62
1
10
-128.097
20
242.284
30
0
11
-128.096
21
242.277
31
0
0
LINE
8
1
62
1
10
-128.096
20
242.277
30
0
11
-128.058
21
241.9
31
0
0
LINE
8
1
62
1
10
-128.058
20
241.9
30
0
11
-128.058
21
241.893
31
0
0
LINE
8
1
62
1
10
-128.058
20
241.893
30
0
11
-128.052
21
241.522
31
0
0
LINE
8
1
62
1
10
-128.052
20
241.522
30
0
11
-128.052
21
241.515
31
0
0
LINE
8
1
62
1
10
-128.052
20
241.515
30
0
11
-128.08
21
241.152
31
0
0
LINE
8
1
62
1
10
-128.08
20
241.152
30
0
11
-128.081
21
241.144
31
0
0
LINE
8
1
62
1
10
-128.081
20
241.144
30
0
11
-128.144
21
240.79
31
0
0
LINE
8
1
62
1
10
-128.144
20
240.79
30
0
11
-128.146
21
240.782
31
0
0
LINE
8
1
62
1
10
-128.146
20
240.782
30
0
11
-128.243
21
240.437
31
0
0
LINE
8
1
62
1
10
-128.243
20
240.437
30
0
11
-128.246
21
240.43
31
0
0
LINE
8
1
62
1
10
-128.246
20
240.43
30
0
11
-128.378
21
240.095
31
0
0
LINE
8
1
62
1
10
-128.378
20
240.095
30
0
11
-128.381
21
240.087
31
0
0
LINE
8
1
62
1
10
-128.381
20
240.087
30
0
11
-128.549
21
239.762
31
0
0
LINE
8
1
62
1
10
-128.549
20
239.762
30
0
11
-128.553
21
239.756
31
0
0
LINE
8
1
62
1
10
-128.553
20
239.756
30
0
11
-128.756
21
239.442
31
0
0
LINE
8
1
62
1
10
-128.756
20
239.442
30
0
11
-128.76
21
239.436
31
0
0
LINE
8
1
62
1
10
-128.76
20
239.436
30
0
11
-128.998
21
239.133
31
0
0
LINE
8
1
62
1
10
-128.998
20
239.133
30
0
11
-129.003
21
239.127
31
0
0
LINE
8
1
62
1
10
-129.003
20
239.127
30
0
11
-129.278
21
238.835
31
0
0
LINE
8
1
62
1
10
-129.278
20
238.835
30
0
11
-129.282
21
238.831
31
0
0
LINE
8
1
62
1
10
-129.282
20
238.831
30
0
11
-129.592
21
238.551
31
0
0
LINE
8
1
62
1
10
-129.592
20
238.551
30
0
11
-129.597
21
238.547
31
0
0
LINE
8
1
62
1
10
-129.597
20
238.547
30
0
11
-129.944
21
238.279
31
0
0
LINE
8
1
62
1
10
-129.944
20
238.279
30
0
11
-129.948
21
238.276
31
0
0
LINE
8
1
62
1
10
-129.948
20
238.276
30
0
11
-130.33
21
238.019
31
0
0
LINE
8
1
62
1
10
-130.33
20
238.019
30
0
11
-130.335
21
238.016
31
0
0
LINE
8
1
62
1
10
-130.335
20
238.016
30
0
11
-130.753
21
237.771
31
0
0
LINE
8
1
62
1
10
-130.753
20
237.771
30
0
11
-130.757
21
237.769
31
0
0
LINE
8
1
62
1
10
-130.757
20
237.769
30
0
11
-131.211
21
237.537
31
0
0
LINE
8
1
62
1
10
-131.211
20
237.537
30
0
11
-131.214
21
237.535
31
0
0
LINE
8
1
62
1
10
-131.214
20
237.535
30
0
11
-131.704
21
237.314
31
0
0
LINE
8
1
62
1
10
-131.704
20
237.314
30
0
11
-131.707
21
237.313
31
0
0
LINE
8
1
62
1
10
-131.707
20
237.313
30
0
11
-132.232
21
237.104
31
0
0
LINE
8
1
62
1
10
-132.232
20
237.104
30
0
11
-132.236
21
237.102
31
0
0
LINE
8
1
62
1
10
-132.236
20
237.102
30
0
11
-132.798
21
236.906
31
0
0
LINE
8
1
62
1
10
-132.798
20
236.906
30
0
11
-132.8
21
236.906
31
0
0
LINE
8
1
62
1
10
-132.8
20
236.906
30
0
11
-133.394
21
236.721
31
0
0
LINE
8
1
62
1
10
-133.394
20
236.721
30
0
11
-133.929
21
236.518
31
0
0
LINE
8
1
62
1
10
-133.929
20
236.518
30
0
11
-133.932
21
236.517
31
0
0
LINE
8
1
62
1
10
-133.932
20
236.517
30
0
11
-134.461
21
236.346
31
0
0
LINE
8
1
62
1
10
-134.461
20
236.346
30
0
11
-134.466
21
236.345
31
0
0
LINE
8
1
62
1
10
-134.466
20
236.345
30
0
11
-134.989
21
236.208
31
0
0
LINE
8
1
62
1
10
-134.989
20
236.208
30
0
11
-134.994
21
236.207
31
0
0
LINE
8
1
62
1
10
-134.994
20
236.207
30
0
11
-135.511
21
236.105
31
0
0
LINE
8
1
62
1
10
-135.511
20
236.105
30
0
11
-135.515
21
236.104
31
0
0
LINE
8
1
62
1
10
-135.515
20
236.104
30
0
11
-136.025
21
236.036
31
0
0
LINE
8
1
62
1
10
-136.025
20
236.036
30
0
11
-136.031
21
236.035
31
0
0
LINE
8
1
62
1
10
-136.031
20
236.035
30
0
11
-136.454
21
236.007
31
0
0
LINE
8
1
62
1
10
-136.459
20
215.118
30
0
11
-137.959
21
215.118
31
0
0
ARC
8
1
62
1
10
-137.959
20
215.198
30
0
40
0.08
50
180
51
-90
0
LINE
8
1
62
1
10
-138.039
20
215.198
30
0
11
-138.039
21
219.198
31
0
0
ARC
8
1
62
1
10
-137.959
20
219.198
30
0
40
0.08
50
90
51
180
0
LINE
8
1
62
1
10
-137.959
20
219.278
30
0
11
-128.459
21
219.278
31
0
0
ARC
8
1
62
1
10
-128.459
20
219.198
30
0
40
0.08
50
0
51
90
0
LINE
8
1
62
1
10
-128.379
20
219.198
30
0
11
-128.379
21
215.198
31
0
0
ARC
8
1
62
1
10
-128.459
20
215.198
30
0
40
0.08
50
-90
51
0
0
LINE
8
1
62
1
10
-128.459
20
215.118
30
0
11
-136.459
21
215.118
31
0
0
LINE
8
1
62
1
10
-143.038
20
209.868
30
0
11
-133.538
21
209.868
31
0
0
ARC
8
1
62
1
10
-133.538
20
209.788
30
0
40
0.08
50
0
51
90
0
LINE
8
1
62
1
10
-133.458
20
209.788
30
0
11
-133.458
21
205.788
31
0
0
ARC
8
1
62
1
10
-133.538
20
205.788
30
0
40
0.08
50
-90
51
0
0
LINE
8
1
62
1
10
-133.538
20
205.708
30
0
11
-143.038
21
205.708
31
0
0
ARC
8
1
62
1
10
-143.038
20
205.788
30
0
40
0.08
50
180
51
-90
0
LINE
8
1
62
1
10
-143.118
20
205.788
30
0
11
-143.118
21
209.788
31
0
0
ARC
8
1
62
1
10
-143.038
20
209.788
30
0
40
0.08
50
90
51
180
0
LINE
8
1
62
1
10
-170.281
20
206.09
30
0
11
-170.879
21
206.09
31
0
0
LINE
8
1
62
1
10
-170.879
20
206.09
30
0
11
-170.879
21
202.25
31
0
0
LINE
8
1
62
1
10
-170.879
20
202.25
30
0
11
-167.039
21
202.25
31
0
0
LINE
8
1
62
1
10
-167.039
20
202.25
30
0
11
-167.039
21
206.09
31
0
0
LINE
8
1
62
1
10
-167.039
20
206.09
30
0
11
-170.281
21
206.09
31
0
0
LINE
8
1
62
1
10
-181.637
20
202.25
30
0
11
-181.039
21
202.25
31
0
0
LINE
8
1
62
1
10
-181.039
20
202.25
30
0
11
-181.039
21
206.09
31
0
0
LINE
8
1
62
1
10
-181.039
20
206.09
30
0
11
-184.879
21
206.09
31
0
0
LINE
8
1
62
1
10
-184.879
20
206.09
30
0
11
-184.879
21
202.25
31
0
0
LINE
8
1
62
1
10
-184.879
20
202.25
30
0
11
-181.637
21
202.25
31
0
0
ARC
8
1
62
1
10
-175.959
20
204.17
30
0
40
25.08
50
-90
51
-21.796697
0
ARC
8
1
62
1
10
-176.039
20
204.17
30
0
40
25.08
50
-90.182346
51
-89.817654
0
ARC
8
1
62
1
10
-175.959
20
204.17
30
0
40
25.08
50
179.999407
51
-90.365286
0
ARC
8
1
62
1
10
-175.959
20
204.17
30
0
40
25.08
50
0
51
180
0
ARC
8
1
62
1
10
-175.959
20
204.17
30
0
40
25.08
50
-21.796697
51
0
0
LINE
8
1
62
1
10
-135.241
20
190.21
30
0
11
-106.33
21
217.256
31
0
0
ARC
8
1
62
1
10
-37.959
20
144.17
30
0
40
100.081
50
109.309599
51
133.09089
0
ARC
8
1
62
1
10
-48.815
20
305.079
30
0
40
70.08
50
-171.034378
51
-108.501341
0
ARC
8
1
62
1
10
-117.959
20
294.17
30
0
40
0.08
50
90
51
-171.024533
0
LINE
8
1
62
1
10
-117.959
20
294.25
30
0
11
-17.959
21
294.25
31
0
0
ARC
8
1
62
1
10
-17.959
20
294.17
30
0
40
0.08
50
0
51
90
0
LINE
8
1
62
1
10
-17.879
20
294.17
30
0
11
-17.879
21
242.215
31
0
0
ARC
8
1
62
1
10
-37.959
20
144.17
30
0
40
100.08
50
39.276252
51
78.425735
0
ARC
8
1
62
1
10
-37.959
20
144.17
30
0
40
100.08
50
-133.090841
51
39.276264
0
LINE
8
1
62
1
10
-106.33
20
71.085
30
0
11
-162.991
21
124.09
31
0
0
LINE
8
1
62
1
10
-162.991
20
124.09
30
0
11
-191.959
21
124.09
31
0
0
ARC
8
1
62
1
10
-191.959
20
124.17
30
0
40
0.08
50
180
51
-90
0
LINE
8
1
62
1
10
-192.039
20
124.17
30
0
11
-192.039
21
134.09
31
0
0
LINE
8
1
62
1
10
-192.039
20
134.09
30
0
11
-195.879
21
134.09
31
0
0
LINE
8
1
62
1
10
-195.879
20
134.09
30
0
11
-195.879
21
124.17
31
0
0
ARC
8
1
62
1
10
-195.959
20
124.17
30
0
40
0.08
50
-90
51
0
0
LINE
8
1
62
1
10
-195.959
20
124.09
30
0
11
-202.959
21
124.09
31
0
0
ARC
8
1
62
1
10
-202.959
20
124.17
30
0
40
0.08
50
180
51
-90
0
LINE
8
1
62
1
10
-203.039
20
124.17
30
0
11
-203.039
21
164.17
31
0
0
ARC
8
1
62
1
10
-202.959
20
164.17
30
0
40
0.08
50
90
51
180
0
LINE
8
1
62
1
10
-202.959
20
164.25
30
0
11
-187.959
21
164.25
31
0
0
ARC
8
1
62
1
10
-187.959
20
164.17
30
0
40
0.08
50
0
51
90
0
LINE
8
1
62
1
10
-187.879
20
164.17
30
0
11
-187.879
21
154.25
31
0
0
LINE
8
1
62
1
10
-187.879
20
154.25
30
0
11
-184.039
21
154.25
31
0
0
LINE
8
1
62
1
10
-184.039
20
154.25
30
0
11
-184.039
21
164.17
31
0
0
ARC
8
1
62
1
10
-183.959
20
164.17
30
0
40
0.08
50
90
51
180
0
LINE
8
1
62
1
10
-183.959
20
164.25
30
0
11
-162.991
21
164.25
31
0
0
LINE
8
1
62
1
10
-162.991
20
164.25
30
0
11
-135.241
21
190.21
31
0
0
LINE
8
1
62
1
10
133.392
20
117.945
30
0
11
133.549
21
118.532
31
0
0
LINE
8
1
62
1
10
133.549
20
118.532
30
0
11
129.841
21
119.526
31
0
0
LINE
8
1
62
1
10
129.841
20
119.526
30
0
11
128.846
21
115.818
31
0
0
LINE
8
1
62
1
10
128.846
20
115.818
30
0
11
132.555
21
114.823
31
0
0
LINE
8
1
62
1
10
132.555
20
114.823
30
0
11
133.392
21
117.945
31
0
0
LINE
8
1
62
1
10
143.951
20
115.746
30
0
11
143.364
21
115.903
31
0
0
LINE
8
1
62
1
10
143.364
20
115.903
30
0
11
142.369
21
112.194
31
0
0
LINE
8
1
62
1
10
142.369
20
112.194
30
0
11
146.078
21
111.2
31
0
0
LINE
8
1
62
1
10
146.078
20
111.2
30
0
11
147.072
21
114.909
31
0
0
LINE
8
1
62
1
10
147.072
20
114.909
30
0
11
143.951
21
115.746
31
0
0
ARC
8
1
62
1
10
137.959
20
115.363
30
0
40
65.08
50
76.762794
51
99.742407
0
ARC
8
1
62
1
10
152.843
20
178.636
30
0
40
0.08
50
-15.001111
51
76.76699
0
LINE
8
1
62
1
10
152.92
20
178.615
30
0
11
149.066
21
164.234
31
0
0
LINE
8
1
62
1
10
149.066
20
164.234
30
0
11
152.775
21
163.24
31
0
0
LINE
8
1
62
1
10
152.775
20
163.24
30
0
11
156.629
21
177.622
31
0
0
ARC
8
1
62
1
10
156.706
20
177.601
30
0
40
0.08
50
73.227486
51
164.998889
0
ARC
8
1
62
1
10
137.959
20
115.363
30
0
40
65.08
50
-43.430455
51
73.237032
0
ARC
8
1
62
1
10
172.021
20
49.297
30
0
40
25.08
50
-15.000598
51
58.242841
0
LINE
8
1
62
1
10
196.246
20
42.805
30
0
11
185.039
21
0.979
31
0
0
ARC
8
1
62
1
10
184.962
20
1
30
0
40
0.08
50
-135.005403
51
-15.000452
0
LINE
8
1
62
1
10
184.905
20
0.943
30
0
11
154.286
21
31.562
31
0
0
ARC
8
1
62
1
10
172.021
20
49.297
30
0
40
25.08
50
176.30528
51
-134.999279
0
ARC
8
1
62
1
10
137.959
20
115.363
30
0
40
65.08
50
-127.978554
51
-82.021533
0
ARC
8
1
62
1
10
75.428
20
75.178
30
0
40
25.08
50
-75.000644
51
-26.304669
0
LINE
8
1
62
1
10
81.919
20
50.953
30
0
11
40.093
21
39.746
31
0
0
ARC
8
1
62
1
10
40.073
20
39.823
30
0
40
0.08
50
164.999596
51
-74.999596
0
LINE
8
1
62
1
10
39.995
20
39.844
30
0
11
51.203
21
81.669
31
0
0
ARC
8
1
62
1
10
75.428
20
75.178
30
0
40
25.08
50
91.756494
51
164.999858
0
ARC
8
1
62
1
10
137.959
20
115.363
30
0
40
65.08
50
99.742407
51
-166.568631
0
ARC
8
1
62
1
10
111.168
20
240.934
30
0
40
60.08
50
-129.999804
51
-75.594948
0
LINE
8
1
62
1
10
72.549
20
194.91
30
0
11
57.229
21
207.766
31
0
0
ARC
8
1
62
1
10
95.847
20
253.79
30
0
40
60.08
50
160.460142
51
-129.999893
0
ARC
8
1
62
1
10
42.224
20
298.784
30
0
40
25.08
50
-129.998815
51
-96.861688
0
ARC
8
1
62
1
10
26.154
20
279.633
30
0
40
0.08
50
140.000284
51
-130.000426
0
LINE
8
1
62
1
10
26.093
20
279.684
30
0
11
58.233
21
317.987
31
0
0
ARC
8
1
62
1
10
58.294
20
317.936
30
0
40
0.08
50
49.998528
51
140.000284
0
ARC
8
1
62
1
10
42.224
20
298.785
30
0
40
25.08
50
16.861042
51
49.99963
0
ARC
8
1
62
1
10
95.848
20
253.789
30
0
40
60.08
50
50.000274
51
119.540422
0
LINE
8
1
62
1
10
134.466
20
299.813
30
0
11
149.786
21
286.957
31
0
0
ARC
8
1
62
1
10
111.168
20
240.933
30
0
40
60.08
50
-38.089275
51
50.000308
0
ARC
8
1
62
1
10
158.391
20
203.92
30
0
40
0.08
50
-130.001472
51
-38.089703
0
LINE
8
1
62
1
10
158.34
20
203.859
30
0
11
158.339
21
203.859
31
0
0
LINE
8
1
62
1
10
158.339
20
203.859
30
0
11
150.766
21
210.213
31
0
0
LINE
8
1
62
1
10
150.766
20
210.213
30
0
11
148.298
21
207.272
31
0
0
LINE
8
1
62
1
10
148.298
20
207.272
30
0
11
155.871
21
200.917
31
0
0
ARC
8
1
62
1
10
155.82
20
200.856
30
0
40
0.08
50
-41.91491
51
50.0069
0
ARC
8
1
62
1
10
111.168
20
240.934
30
0
40
60.08
50
-75.594948
51
-41.910103
0
ENDSEC
0
EOF
