999
"DXF R12 Output" (www.mydxf.blogspot.com)
 0 
SECTION
 2 
HEADER
 9 
$ACADVER
 1 
AC1009
 9 
$EXTMIN
 10 
 0 
 20 
 0 
 9 
$EXTMAX
 10 
 8.5 
 20 
 11 
 0 
ENDSEC
 0 
SECTION
 2 
ENTITIES
0
LINE
8
Layer 1
10
0.846666
20
534.180000
11
-0.846666
21
532.486000
0
LINE
8
Layer 1
10
0.000000
20
534.744000
11
0.000000
21
531.922000
0
LINE
8
Layer 1
10
2.257780
20
532.204000
11
1.128890
21
531.075110
0
LINE
8
Layer 1
10
1.693330
20
532.769000
11
0.564440
21
531.640110
0
LINE
8
Layer 1
10
1.128890
20
533.333000
11
0.000000
21
532.204110
0
LINE
8
1
10
89.047200
20
429.409000
11
89.230644
21
429.463469
0
LINE
8
1
10
89.230700
20
429.464000
11
89.445189
21
429.536531
0
LINE
8
1
10
89.445200
20
429.536000
11
89.650093
21
429.615022
0
LINE
8
1
10
89.650100
20
429.615000
11
89.846244
21
429.700231
0
LINE
8
1
10
89.846200
20
429.701000
11
90.030773
21
429.790747
0
LINE
8
1
10
90.030800
20
429.790000
11
90.207753
21
429.887084
0
LINE
8
1
10
90.207700
20
429.887000
11
90.374211
21
429.989164
0
LINE
8
1
10
90.374300
20
429.990000
11
90.532062
21
430.098938
0
LINE
8
1
10
90.532000
20
430.098000
11
90.679320
21
430.212018
0
LINE
8
1
10
90.679300
20
430.212000
11
90.817871
21
430.332509
0
LINE
8
1
10
90.817900
20
430.333000
11
90.946029
21
430.458871
0
LINE
8
1
10
90.946000
20
430.459000
11
91.066509
21
430.590233
0
LINE
8
1
10
91.066500
20
430.590000
11
91.176284
21
430.727724
0
LINE
8
1
10
91.176300
20
430.728000
11
91.277618
21
430.870804
0
LINE
8
1
10
91.277700
20
430.871000
11
91.370551
21
431.020295
0
LINE
8
1
10
91.370500
20
431.020000
11
91.453756
21
431.174658
0
LINE
8
1
10
91.453800
20
431.175000
11
91.527460
21
431.335020
0
LINE
8
1
10
91.527400
20
431.335000
11
91.592311
21
431.498407
0
LINE
8
1
10
91.592300
20
431.498000
11
91.696722
21
431.845698
0
LINE
8
1
10
91.696800
20
431.846000
11
91.766227
21
432.211760
0
LINE
8
1
10
91.766200
20
432.211000
11
91.801478
21
432.595104
0
LINE
8
1
10
91.801500
20
432.596000
11
91.802629
21
432.993933
0
LINE
8
1
10
91.802600
20
432.993000
11
91.770427
21
433.403633
0
LINE
8
1
10
91.770400
20
433.404000
11
91.708593
21
433.823100
0
LINE
8
1
10
91.708600
20
433.823000
11
91.618007
21
434.246333
0
LINE
8
1
10
91.618000
20
434.247000
11
91.499467
21
434.668357
0
LINE
8
1
10
91.499500
20
434.668000
11
91.356696
21
435.083149
0
LINE
8
1
10
91.356700
20
435.083000
11
91.192447
21
435.484037
0
LINE
8
1
10
91.192400
20
435.484000
11
91.009802
21
435.864717
0
LINE
8
1
10
91.009800
20
435.865000
11
90.812527
21
436.220317
0
LINE
8
1
10
90.812500
20
436.220000
11
90.604502
21
436.539758
0
LINE
8
1
10
90.604600
20
436.540000
11
90.499049
21
436.684215
0
LINE
8
1
10
90.499000
20
436.684000
11
90.391191
21
436.818338
0
LINE
8
1
10
90.391200
20
436.818000
11
90.282545
21
436.939638
0
LINE
8
1
10
90.282500
20
436.940000
11
90.174691
21
437.050913
0
LINE
8
1
10
90.174700
20
437.051000
11
90.066891
21
437.148084
0
LINE
8
1
10
90.066900
20
437.148000
11
89.960220
21
437.230127
0
LINE
8
1
10
89.960200
20
437.230000
11
89.855778
21
437.299144
0
LINE
8
1
10
89.855800
20
437.299000
11
89.754482
21
437.354598
0
LINE
8
1
10
89.754500
20
437.355000
11
89.656287
21
437.394511
0
LINE
8
1
10
89.656300
20
437.394000
11
89.562602
21
437.419682
0
LINE
8
1
10
89.562600
20
437.420000
11
89.472853
21
437.432700
0
LINE
8
1
10
89.472800
20
437.433000
11
89.386440
21
437.431871
0
LINE
8
1
10
89.386500
20
437.432000
11
89.305502
21
437.418171
0
LINE
8
1
10
89.305500
20
437.418000
11
89.227607
21
437.391471
0
LINE
8
1
10
89.227600
20
437.391000
11
89.151964
21
437.351489
0
LINE
8
1
10
89.152000
20
437.352000
11
89.079469
21
437.298660
0
LINE
8
1
10
89.079400
20
437.298000
11
89.011102
21
437.232807
0
LINE
8
1
10
89.011100
20
437.233000
11
88.944778
21
437.153978
0
LINE
8
1
10
88.944800
20
437.154000
11
88.884122
21
437.063407
0
LINE
8
1
10
88.884100
20
437.064000
11
88.828502
21
436.962682
0
LINE
8
1
10
88.828500
20
436.962000
11
88.731416
21
436.728320
0
LINE
8
1
10
88.731400
20
436.729000
11
88.659998
21
436.466816
0
LINE
8
1
10
88.660000
20
436.467000
11
88.615127
21
436.188447
0
LINE
8
1
10
88.615200
20
436.188000
11
88.596009
21
435.905496
0
LINE
8
1
10
88.596000
20
435.905000
11
88.604749
21
435.628705
0
LINE
8
1
10
88.604700
20
435.629000
11
88.639695
21
435.373871
0
LINE
8
1
10
88.639700
20
435.374000
11
88.702635
21
435.146811
0
LINE
8
1
10
88.702700
20
435.147000
11
88.741082
21
435.051044
0
LINE
8
1
10
88.741000
20
435.051000
11
88.784744
21
434.963511
0
LINE
8
1
10
88.784800
20
434.963000
11
88.835036
21
434.886236
0
LINE
8
1
10
88.835000
20
434.887000
11
88.887211
21
434.822936
0
LINE
8
1
10
88.887200
20
434.823000
11
88.944773
21
434.769660
0
LINE
8
1
10
88.944800
20
434.769000
11
89.005760
21
434.726384
0
LINE
8
1
10
89.005800
20
434.727000
11
89.069582
21
434.695109
0
LINE
8
1
10
89.069500
20
434.695000
11
89.135822
21
434.671576
0
LINE
8
1
10
89.135900
20
434.671000
11
89.289429
21
434.647576
0
LINE
8
1
10
89.289400
20
434.648000
11
89.454782
21
434.656467
0
LINE
8
1
10
89.454800
20
434.656000
11
89.634011
21
434.685916
0
LINE
8
1
10
89.634000
20
434.686000
11
90.003146
21
434.768127
0
LINE
8
1
10
90.003100
20
434.768000
11
90.007333
21
434.768847
0
LINE
8
1
10
90.007400
20
434.769000
11
90.182378
21
434.796940
0
LINE
8
1
10
90.194400
20
434.798000
11
90.182744
21
434.796871
0
LINE
8
1
10
90.193900
20
434.798000
11
90.355049
21
434.801387
0
LINE
8
1
10
90.370600
20
434.800000
11
90.355473
21
434.801129
0
LINE
8
1
10
90.371200
20
434.800000
11
90.444578
21
434.788147
0
LINE
8
1
10
90.455000
20
434.786000
11
90.444163
21
434.788540
0
LINE
8
1
10
90.455300
20
434.786000
11
90.523598
21
434.765680
0
LINE
8
1
10
90.535600
20
434.761000
11
90.523295
21
434.765713
0
LINE
8
1
10
90.535400
20
434.761000
11
90.598335
21
434.731085
0
LINE
8
1
10
90.613100
20
434.722000
11
90.598481
21
434.730834
0
LINE
8
1
10
90.613000
20
434.722000
11
90.668598
21
434.680513
0
LINE
8
1
10
90.679000
20
434.672000
11
90.668614
21
434.681200
0
LINE
8
1
10
90.679300
20
434.671000
11
90.729253
21
434.618789
0
LINE
8
1
10
90.739100
20
434.607000
11
90.729138
21
434.619559
0
LINE
8
1
10
90.738900
20
434.607000
11
90.780669
21
434.542936
0
LINE
8
1
10
90.786600
20
434.532000
11
90.780730
21
434.542611
0
LINE
8
1
10
90.787100
20
434.532000
11
90.820967
21
434.458622
0
LINE
8
1
10
90.825000
20
434.447000
11
90.820682
21
434.458374
0
LINE
8
1
10
90.825500
20
434.447000
11
90.850900
21
434.361769
0
LINE
8
1
10
90.850900
20
434.362000
11
90.853158
21
434.352404
0
LINE
8
1
10
90.853200
20
434.352000
11
90.870133
21
434.258020
0
LINE
8
1
10
90.870100
20
434.258000
11
90.871229
21
434.250662
0
LINE
8
1
10
90.871300
20
434.251000
11
90.879767
21
434.146296
0
LINE
8
1
10
90.879700
20
434.146000
11
90.879700
21
434.138000
0
LINE
8
1
10
90.879700
20
434.138000
11
90.878853
21
434.025958
0
LINE
8
1
10
90.878900
20
434.026000
11
90.878900
21
434.019000
0
LINE
8
1
10
90.878900
20
434.019000
11
90.867047
21
433.899338
0
LINE
8
1
10
90.867000
20
433.899000
11
90.865871
21
433.893638
0
LINE
8
1
10
90.865900
20
433.893000
11
90.844733
21
433.767129
0
LINE
8
1
10
90.844700
20
433.768000
11
90.843571
21
433.761791
0
LINE
8
1
10
90.843600
20
433.761000
11
90.811427
21
433.630896
0
LINE
8
1
10
90.811400
20
433.631000
11
90.809424
21
433.625638
0
LINE
8
1
10
90.809400
20
433.626000
11
90.766784
21
433.490533
0
LINE
8
1
10
90.766800
20
433.490000
11
90.765671
21
433.484638
0
LINE
8
1
10
90.765700
20
433.485000
11
90.712360
21
433.348405
0
LINE
8
1
10
90.712400
20
433.349000
11
90.709296
21
433.343638
0
LINE
8
1
10
90.709300
20
433.343000
11
90.644107
21
433.204429
0
LINE
8
1
10
90.644100
20
433.205000
11
90.642124
21
433.199638
0
LINE
8
1
10
90.642100
20
433.199000
11
90.566182
21
433.061276
0
LINE
8
1
10
90.566200
20
433.061000
11
90.564224
21
433.056767
0
LINE
8
1
10
90.564200
20
433.057000
11
90.476711
21
432.919558
0
LINE
8
1
10
90.476700
20
432.920000
11
90.472467
21
432.914638
0
LINE
8
1
10
90.472500
20
432.914000
11
90.373158
21
432.780509
0
LINE
8
1
10
90.373100
20
432.781000
11
90.369996
21
432.776767
0
LINE
8
1
10
90.370000
20
432.777000
11
90.257958
21
432.646896
0
LINE
8
1
10
90.258000
20
432.647000
11
90.253767
21
432.642767
0
LINE
8
1
10
90.253700
20
432.642000
11
90.129805
21
432.516129
0
LINE
8
1
10
90.129900
20
432.517000
11
90.125667
21
432.512767
0
LINE
8
1
10
90.125600
20
432.512000
11
89.990133
21
432.393467
0
LINE
8
1
10
89.990200
20
432.394000
11
89.984838
21
432.389767
0
LINE
8
1
10
89.984800
20
432.390000
11
89.836633
21
432.277958
0
LINE
8
1
10
89.836600
20
432.277000
11
89.831238
21
432.273896
0
LINE
8
1
10
89.831300
20
432.274000
11
89.671280
21
432.170425
0
LINE
8
1
10
89.671200
20
432.171000
11
89.666967
21
432.167896
0
LINE
8
1
10
89.667000
20
432.168000
11
89.494280
21
432.072045
0
LINE
8
1
10
89.494300
20
432.072000
11
89.488938
21
432.069742
0
LINE
8
1
10
89.488900
20
432.069000
11
89.304327
21
431.982640
0
LINE
8
1
10
89.304400
20
431.983000
11
89.299038
21
431.979896
0
LINE
8
1
10
89.299000
20
431.980000
11
89.101727
21
431.903236
0
LINE
8
1
10
89.059000
20
431.899000
11
89.101675
21
431.903995
0
LINE
8
1
10
89.059100
20
431.899000
11
88.735956
21
431.943591
0
LINE
8
1
10
88.736000
20
431.944000
11
88.728380
21
431.945129
0
LINE
8
1
10
88.728300
20
431.945000
11
88.425476
21
432.013298
0
LINE
8
1
10
88.425500
20
432.013000
11
88.417900
21
432.015000
0
LINE
8
1
10
88.417900
20
432.015000
11
88.133138
21
432.106722
0
LINE
8
1
10
88.133100
20
432.107000
11
88.125762
21
432.110104
0
LINE
8
1
10
88.125800
20
432.110000
11
87.861076
21
432.225147
0
LINE
8
1
10
87.861100
20
432.225000
11
87.853762
21
432.228387
0
LINE
8
1
10
87.853700
20
432.229000
11
87.609296
21
432.366442
0
LINE
8
1
10
87.609300
20
432.366000
11
87.600833
21
432.371362
0
LINE
8
1
10
87.600900
20
432.371000
11
87.375900
21
432.533000
0
LINE
8
1
10
87.375900
20
432.533000
11
87.369409
21
432.538362
0
LINE
8
1
10
87.369400
20
432.538000
11
87.163378
21
432.721444
0
LINE
8
1
10
87.163400
20
432.721000
11
87.156062
21
432.728338
0
LINE
8
1
10
87.156100
20
432.729000
11
86.970398
21
432.935869
0
LINE
8
1
10
86.970400
20
432.936000
11
86.965038
21
432.942491
0
LINE
8
1
10
86.965000
20
432.942000
11
86.798771
21
433.170318
0
LINE
8
1
10
86.798800
20
433.170000
11
86.794567
21
433.177338
0
LINE
8
1
10
86.794600
20
433.178000
11
86.649500
21
433.426000
0
LINE
8
1
10
86.649500
20
433.426000
11
86.646113
21
433.432491
0
LINE
8
1
10
86.646100
20
433.433000
11
86.520229
21
433.702804
0
LINE
8
1
10
86.520200
20
433.703000
11
86.517096
21
433.710338
0
LINE
8
1
10
86.517100
20
433.710000
11
86.412678
21
433.999278
0
LINE
8
1
10
86.412700
20
433.999000
11
86.410442
21
434.005209
0
LINE
8
1
10
86.410400
20
434.006000
11
86.326298
21
434.312211
0
LINE
8
1
10
86.326300
20
434.312000
11
86.324042
21
434.318491
0
LINE
8
1
10
86.324100
20
434.318000
11
86.261165
21
434.641144
0
LINE
8
1
10
86.261200
20
434.641000
11
86.261200
21
434.647000
0
LINE
8
1
10
86.261200
20
434.647000
11
86.219713
21
434.983973
0
LINE
8
1
10
86.219700
20
434.984000
11
86.218571
21
434.990491
0
LINE
8
1
10
86.218500
20
434.990000
11
86.199309
21
435.338826
0
LINE
8
1
10
86.199300
20
435.339000
11
86.199300
21
435.343000
0
LINE
8
1
10
86.199300
20
435.343000
11
86.201276
21
435.701422
0
LINE
8
1
10
86.201300
20
435.702000
11
86.201300
21
435.707000
0
LINE
8
1
10
86.201300
20
435.707000
11
86.224724
21
436.070502
0
LINE
8
1
10
86.224700
20
436.071000
11
86.225829
21
436.076362
0
LINE
8
1
10
86.225900
20
436.076000
11
86.273031
21
436.444017
0
LINE
8
1
10
86.273000
20
436.444000
11
86.273000
21
436.449000
0
LINE
8
1
10
86.273000
20
436.449000
11
86.343273
21
436.818146
0
LINE
8
1
10
86.343300
20
436.818000
11
86.344429
21
436.823362
0
LINE
8
1
10
86.344400
20
436.824000
11
86.437251
21
437.187784
0
LINE
8
1
10
86.437300
20
437.188000
11
86.439276
21
437.193362
0
LINE
8
1
10
86.439200
20
437.193000
11
86.555475
21
437.551140
0
LINE
8
1
10
86.555500
20
437.551000
11
86.557758
21
437.556362
0
LINE
8
1
10
86.557800
20
437.556000
11
86.697500
21
437.902851
0
LINE
8
1
10
86.697500
20
437.903000
11
86.699476
21
437.908362
0
LINE
8
1
10
86.699400
20
437.909000
11
86.863653
21
438.242869
0
LINE
8
1
10
86.863700
20
438.243000
11
86.867087
21
438.249209
0
LINE
8
1
10
86.867100
20
438.249000
11
87.053649
21
438.564806
0
LINE
8
1
10
87.053600
20
438.565000
11
87.057833
21
438.570362
0
LINE
8
1
10
87.057900
20
438.570000
11
87.268155
21
438.864358
0
LINE
8
1
10
87.268100
20
438.864000
11
87.273462
21
438.870491
0
LINE
8
1
10
87.273500
20
438.871000
11
87.508026
21
439.141933
0
LINE
8
1
10
87.508000
20
439.142000
11
87.513362
21
439.148209
0
LINE
8
1
10
87.513400
20
439.148000
11
87.769375
21
439.392404
0
LINE
8
1
10
87.769300
20
439.392000
11
87.775791
21
439.398491
0
LINE
8
1
10
87.775800
20
439.399000
11
88.055200
21
439.612078
0
LINE
8
1
10
88.055200
20
439.612000
11
88.063667
21
439.617362
0
LINE
8
1
10
88.063700
20
439.617000
11
88.364549
21
439.797340
0
LINE
8
1
10
88.364600
20
439.798000
11
88.373067
21
439.802233
0
LINE
8
1
10
88.373000
20
439.802000
11
88.540640
21
439.878764
0
LINE
8
1
10
88.540200
20
439.879000
11
87.564486
21
439.705541
0
LINE
8
1
10
87.564486
20
439.705541
11
86.662056
21
439.362706
0
LINE
8
1
10
86.662056
20
439.362706
11
85.849643
21
438.868321
0
LINE
8
1
10
85.849643
20
438.868321
11
85.143978
21
438.240214
0
LINE
8
1
10
85.143978
20
438.240214
11
84.561793
21
437.496210
0
LINE
8
1
10
84.561793
20
437.496210
11
84.119818
21
436.654135
0
LINE
8
1
10
84.119818
20
436.654135
11
83.834787
21
435.731816
0
LINE
8
1
10
83.834787
20
435.731816
11
83.723430
21
434.747080
0
LINE
8
1
10
83.723400
20
434.746000
11
83.809095
21
433.697627
0
LINE
8
1
10
83.809095
20
433.697627
11
84.098363
21
432.696932
0
LINE
8
1
10
84.098363
20
432.696932
11
84.579535
21
431.773061
0
LINE
8
1
10
84.579535
20
431.773061
11
85.240946
21
430.955158
0
LINE
8
1
10
85.240946
20
430.955158
11
86.052150
21
430.285548
0
LINE
8
1
10
86.052150
20
430.285548
11
86.971131
21
429.795100
0
LINE
8
1
10
86.971131
20
429.795100
11
87.968863
21
429.495774
0
LINE
8
1
10
87.968863
20
429.495774
11
89.016320
21
429.399530
0
LINE
8
1
10
89.016500
20
429.401000
11
89.047262
21
429.409467
0
LINE
8
1
10
89.046100
20
425.940000
11
88.960869
21
425.934638
0
LINE
8
1
10
88.960900
20
425.935000
11
88.955500
21
425.935000
0
LINE
8
1
10
88.955500
20
425.935000
11
88.427463
21
425.936129
0
LINE
8
1
10
88.427500
20
425.936000
11
88.421300
21
425.936000
0
LINE
8
1
10
88.421300
20
425.936000
11
87.899472
21
425.973253
0
LINE
8
1
10
87.899500
20
425.973000
11
87.893291
21
425.974129
0
LINE
8
1
10
87.893200
20
425.975000
11
87.381249
21
426.049789
0
LINE
8
1
10
87.381300
20
426.049000
11
87.375900
21
426.051000
0
LINE
8
1
10
87.375900
20
426.051000
11
86.871287
21
426.162760
0
LINE
8
1
10
86.871300
20
426.162000
11
86.864809
21
426.163129
0
LINE
8
1
10
86.864800
20
426.163000
11
86.370912
21
426.311449
0
LINE
8
1
10
86.370900
20
426.312000
11
86.365538
21
426.313976
0
LINE
8
1
10
86.365600
20
426.314000
11
85.880460
21
426.498573
0
LINE
8
1
10
85.880400
20
426.498000
11
85.873909
21
426.500258
0
LINE
8
1
10
85.873900
20
426.501000
11
85.400400
21
426.720000
0
LINE
8
1
10
85.400400
20
426.720000
11
85.395038
21
426.723104
0
LINE
8
1
10
85.395000
20
426.723000
11
84.933003
21
426.978129
0
LINE
8
1
10
84.933000
20
426.978000
11
84.928767
21
426.981104
0
LINE
8
1
10
84.928800
20
426.982000
11
84.479785
21
427.270995
0
LINE
8
1
10
84.479800
20
427.271000
11
84.474400
21
427.274000
0
LINE
8
1
10
84.474400
20
427.274000
11
84.039214
21
427.596015
0
LINE
8
1
10
84.039200
20
427.596000
11
84.034967
21
427.599104
0
LINE
8
1
10
84.035000
20
427.599000
11
83.615900
21
427.952060
0
LINE
8
1
10
83.615900
20
427.952000
11
83.612513
21
427.955387
0
LINE
8
1
10
83.612500
20
427.956000
11
83.210616
21
428.338975
0
LINE
8
1
10
83.210600
20
428.339000
11
83.207213
21
428.342104
0
LINE
8
1
10
83.207200
20
428.342000
11
82.823378
21
428.751504
0
LINE
8
1
10
82.823400
20
428.751000
11
82.818884
21
428.755233
0
LINE
8
1
10
82.818900
20
428.755000
11
82.456245
21
429.191315
0
LINE
8
1
10
82.456200
20
429.192000
11
82.454224
21
429.195387
0
LINE
8
1
10
82.454300
20
429.195000
11
82.112811
21
429.653611
0
LINE
8
1
10
82.112800
20
429.654000
11
82.109696
21
429.658233
0
LINE
8
1
10
82.109700
20
429.658000
11
81.793894
21
430.136931
0
LINE
8
1
10
81.793900
20
430.137000
11
81.791924
21
430.141233
0
LINE
8
1
10
81.791900
20
430.141000
11
81.501776
21
430.637993
0
LINE
8
1
10
81.501800
20
430.638000
11
81.499542
21
430.642233
0
LINE
8
1
10
81.499500
20
430.642000
11
81.238162
21
431.154233
0
LINE
8
1
10
81.238200
20
431.155000
11
81.236224
21
431.159233
0
LINE
8
1
10
81.236200
20
431.159000
11
81.005625
21
431.682522
0
LINE
8
1
10
81.005600
20
431.682000
11
81.003624
21
431.686516
0
LINE
8
1
10
81.003600
20
431.687000
11
80.805198
21
432.221246
0
LINE
8
1
10
80.805200
20
432.221000
11
80.802942
21
432.226362
0
LINE
8
1
10
80.803000
20
432.226000
11
80.639876
21
432.766737
0
LINE
8
1
10
80.639900
20
432.767000
11
80.638771
21
432.772362
0
LINE
8
1
10
80.638700
20
432.773000
11
80.510853
21
433.319100
0
LINE
8
1
10
80.510900
20
433.319000
11
80.509771
21
433.324362
0
LINE
8
1
10
80.509800
20
433.324000
11
80.421182
21
433.871228
0
LINE
8
1
10
80.421100
20
433.871000
11
80.419971
21
433.877491
0
LINE
8
1
10
80.420000
20
433.878000
11
80.370047
21
434.424100
0
LINE
8
1
10
80.370100
20
434.424000
11
80.370100
21
434.430000
0
LINE
8
1
10
80.370100
20
434.430000
11
80.361351
21
434.973842
0
LINE
8
1
10
80.361300
20
434.974000
11
80.361300
21
434.978000
0
LINE
8
1
10
80.361300
20
434.978000
11
80.373153
21
435.247804
0
LINE
8
1
10
80.373200
20
435.248000
11
80.373200
21
435.253000
0
LINE
8
1
10
80.373200
20
435.253000
11
80.395495
21
435.521675
0
LINE
8
1
10
80.395500
20
435.521000
11
80.396629
21
435.524104
0
LINE
8
1
10
80.396600
20
435.524000
11
80.436111
21
435.827106
0
LINE
8
1
10
80.436100
20
435.828000
11
80.436100
21
435.832000
0
LINE
8
1
10
80.436100
20
435.832000
11
80.488311
21
436.130591
0
LINE
8
1
10
80.488300
20
436.130000
11
80.489429
21
436.134233
0
LINE
8
1
10
80.489400
20
436.135000
11
80.556569
21
436.432744
0
LINE
8
1
10
80.556600
20
436.432000
11
80.557729
21
436.435104
0
LINE
8
1
10
80.557700
20
436.435000
11
80.638698
21
436.728229
0
LINE
8
1
10
80.638700
20
436.729000
11
80.639829
21
436.733516
0
LINE
8
1
10
80.639900
20
436.733000
11
80.735855
21
437.023124
0
LINE
8
1
10
80.735800
20
437.023000
11
80.736929
21
437.027233
0
LINE
8
1
10
80.736900
20
437.028000
11
80.847813
21
437.314738
0
LINE
8
1
10
80.847900
20
437.314000
11
80.849876
21
437.317387
0
LINE
8
1
10
80.849800
20
437.318000
11
80.974824
21
437.600504
0
LINE
8
1
10
80.974900
20
437.600000
11
80.975747
21
437.604233
0
LINE
8
1
10
80.975700
20
437.604000
11
81.114553
21
437.883682
0
LINE
8
1
10
81.114600
20
437.884000
11
81.116576
21
437.887104
0
LINE
8
1
10
81.116500
20
437.887000
11
81.271158
21
438.162166
0
LINE
8
1
10
81.271200
20
438.162000
11
81.273458
21
438.165104
0
LINE
8
1
10
81.273400
20
438.165000
11
81.441887
21
438.435933
0
LINE
8
1
10
81.441900
20
438.436000
11
81.444158
21
438.439387
0
LINE
8
1
10
81.444200
20
438.440000
11
81.627644
21
438.707546
0
LINE
8
1
10
81.627600
20
438.707000
11
81.629576
21
438.710387
0
LINE
8
1
10
81.629600
20
438.711000
11
81.828002
21
438.973466
0
LINE
8
1
10
81.828000
20
438.973000
11
81.830258
21
438.976104
0
LINE
8
1
10
81.830300
20
438.976000
11
82.042531
21
439.234233
0
LINE
8
1
10
82.042500
20
439.235000
11
82.045604
21
439.236976
0
LINE
8
1
10
82.045600
20
439.237000
11
82.273918
21
439.491000
0
LINE
8
1
10
82.273900
20
439.491000
11
82.276158
21
439.494104
0
LINE
8
1
10
82.276200
20
439.494000
11
82.517218
21
439.742638
0
LINE
8
1
10
82.517200
20
439.742000
11
82.519176
21
439.743976
0
LINE
8
1
10
82.519200
20
439.744000
11
82.776304
21
439.988404
0
LINE
8
1
10
82.776300
20
439.989000
11
82.778558
21
439.990976
0
LINE
8
1
10
82.778500
20
439.991000
11
83.049433
21
440.231171
0
LINE
8
1
10
83.049500
20
440.231000
11
83.051476
21
440.232976
0
LINE
8
1
10
83.051400
20
440.233000
11
83.336444
21
440.467809
0
LINE
8
1
10
83.336500
20
440.468000
11
83.338476
21
440.468847
0
LINE
8
1
10
83.338500
20
440.468000
11
83.638220
21
440.698575
0
LINE
8
1
10
83.638200
20
440.699000
11
83.640458
21
440.700976
0
LINE
8
1
10
83.640400
20
440.701000
11
83.955078
21
440.926213
0
LINE
8
1
10
83.955100
20
440.926000
11
83.958204
21
440.927129
0
LINE
8
1
10
83.958200
20
440.927000
11
84.286706
21
441.147698
0
LINE
8
1
10
84.286700
20
441.148000
11
84.287829
21
441.149129
0
LINE
8
1
10
84.287900
20
441.149000
11
84.630235
21
441.364335
0
LINE
8
1
10
84.630200
20
441.364000
11
84.632458
21
441.365129
0
LINE
8
1
10
84.632500
20
441.366000
11
84.988664
21
441.577102
0
LINE
8
1
10
84.988600
20
441.577000
11
84.990858
21
441.578129
0
LINE
8
1
10
84.990900
20
441.578000
11
85.362022
21
441.784022
0
LINE
8
1
10
85.362000
20
441.784000
11
85.363976
21
441.784847
0
LINE
8
1
10
85.364000
20
441.785000
11
85.749233
21
441.985660
0
LINE
8
1
10
85.749200
20
441.985000
11
85.751176
21
441.986129
0
LINE
8
1
10
85.751200
20
441.986000
11
86.150262
21
442.182144
0
LINE
8
1
10
86.150200
20
442.183000
11
86.151329
21
442.184129
0
LINE
8
1
10
86.151400
20
442.184000
11
86.564009
21
442.374782
0
LINE
8
1
10
86.564000
20
442.375000
11
86.566200
21
442.375000
0
LINE
8
1
10
86.566200
20
442.375000
11
86.992920
21
442.561831
0
LINE
8
1
10
86.993000
20
442.561000
11
86.994976
21
442.562129
0
LINE
8
1
10
86.994900
20
442.563000
11
87.436577
21
442.744187
0
LINE
8
1
10
87.436600
20
442.744000
11
87.437729
21
442.745129
0
LINE
8
1
10
87.437700
20
442.745000
11
87.892077
21
442.921953
0
LINE
8
1
10
87.892100
20
442.922000
11
87.893200
21
442.922000
0
LINE
8
1
10
87.893200
20
442.922000
11
88.361406
21
443.093873
0
LINE
8
1
10
88.361500
20
443.094000
11
88.363476
21
443.095129
0
LINE
8
1
10
88.363400
20
443.095000
11
88.845717
21
443.262358
0
LINE
8
1
10
88.873400
20
443.266000
11
88.845404
21
443.261287
0
LINE
8
1
10
88.873400
20
443.266000
11
91.103800
21
443.266000
0
LINE
8
1
10
91.189200
20
443.181000
11
91.103867
21
443.266333
0
LINE
8
1
10
91.189000
20
443.181000
11
91.189000
21
439.000000
0
LINE
8
1
10
91.189000
20
439.000000
11
95.285200
21
439.000000
0
LINE
8
1
10
95.285200
20
439.000000
11
95.285200
21
443.181000
0
LINE
8
1
10
95.370500
20
443.266000
11
95.310159
21
443.241008
0
LINE
8
1
10
95.310159
20
443.241008
11
95.285165
21
443.180667
0
LINE
8
1
10
95.370400
20
443.266000
11
97.503700
21
443.266000
0
LINE
8
1
10
97.589100
20
443.181000
11
97.503767
21
443.266333
0
LINE
8
1
10
97.589300
20
443.181000
11
97.589300
21
437.848000
0
LINE
8
1
10
97.503800
20
437.762000
11
97.589133
21
437.847333
0
LINE
8
1
10
97.503700
20
437.762000
11
94.913000
21
437.762000
0
LINE
8
1
10
94.913000
20
437.762000
11
95.130593
21
437.557107
0
LINE
8
1
10
95.130500
20
437.558000
11
95.132476
21
437.556024
0
LINE
8
1
10
95.132500
20
437.556000
11
95.493180
21
437.187983
0
LINE
8
1
10
95.493200
20
437.188000
11
95.496304
21
437.184613
0
LINE
8
1
10
95.496300
20
437.184000
11
95.839764
21
436.801025
0
LINE
8
1
10
95.839800
20
436.801000
11
95.842058
21
436.799024
0
LINE
8
1
10
95.842000
20
436.799000
11
96.167120
21
436.405300
0
LINE
8
1
10
96.167100
20
436.406000
11
96.169358
21
436.402896
0
LINE
8
1
10
96.169400
20
436.402000
11
96.474482
21
435.998705
0
LINE
8
1
10
96.474500
20
435.999000
11
96.476758
21
435.995896
0
LINE
8
1
10
96.476700
20
435.996000
11
96.758075
21
435.585367
0
LINE
8
1
10
96.758100
20
435.585000
11
96.760358
21
435.581613
0
LINE
8
1
10
96.760400
20
435.582000
11
97.017504
21
435.165158
0
LINE
8
1
10
97.017500
20
435.165000
11
97.019476
21
435.161613
0
LINE
8
1
10
97.019500
20
435.162000
11
97.250075
21
434.742900
0
LINE
8
1
10
97.250000
20
434.743000
11
97.251976
21
434.738767
0
LINE
8
1
10
97.252000
20
434.738000
11
97.454635
21
434.317771
0
LINE
8
1
10
97.454600
20
434.318000
11
97.456858
21
434.312638
0
LINE
8
1
10
97.456900
20
434.313000
11
97.628491
21
433.892771
0
LINE
8
1
10
97.628500
20
433.893000
11
97.630758
21
433.888767
0
LINE
8
1
10
97.630700
20
433.888000
11
97.772658
21
433.470876
0
LINE
8
1
10
97.772700
20
433.471000
11
97.773547
21
433.464509
0
LINE
8
1
10
97.773600
20
433.465000
11
97.882538
21
433.050134
0
LINE
8
1
10
97.882500
20
433.050000
11
97.884758
21
433.044638
0
LINE
8
1
10
97.884700
20
433.045000
11
97.960335
21
432.636343
0
LINE
8
1
10
97.960400
20
432.636000
11
97.961529
21
432.628662
0
LINE
8
1
10
97.961500
20
432.629000
11
98.001858
21
432.226834
0
LINE
8
1
10
98.001900
20
432.226000
11
98.001900
21
432.219000
0
LINE
8
1
10
98.001900
20
432.219000
11
98.008391
21
431.823043
0
LINE
8
1
10
98.008400
20
431.823000
11
98.008400
21
431.816000
0
LINE
8
1
10
98.008400
20
431.816000
11
97.978484
21
431.428791
0
LINE
8
1
10
97.978400
20
431.429000
11
97.977271
21
431.420533
0
LINE
8
1
10
97.977300
20
431.420000
11
97.910131
21
431.042387
0
LINE
8
1
10
97.910100
20
431.042000
11
97.908124
21
431.033533
0
LINE
8
1
10
97.908200
20
431.034000
11
97.804625
21
430.665983
0
LINE
8
1
10
97.804600
20
430.666000
11
97.801496
21
430.658380
0
LINE
8
1
10
97.801500
20
430.658000
11
97.660671
21
430.300707
0
LINE
8
1
10
97.660700
20
430.301000
11
97.657313
21
430.292533
0
LINE
8
1
10
97.657300
20
430.293000
11
97.478371
21
429.946149
0
LINE
8
1
10
97.478300
20
429.946000
11
97.473784
21
429.939791
0
LINE
8
1
10
97.473800
20
429.940000
11
97.257336
21
429.605002
0
LINE
8
1
10
97.257400
20
429.605000
11
97.253167
21
429.598509
0
LINE
8
1
10
97.253100
20
429.598000
11
96.999382
21
429.274856
0
LINE
8
1
10
96.999400
20
429.275000
11
96.994038
21
429.268509
0
LINE
8
1
10
96.994100
20
429.268000
11
96.700589
21
428.956709
0
LINE
8
1
10
96.700500
20
428.957000
11
96.696267
21
428.952767
0
LINE
8
1
10
96.696300
20
428.953000
11
96.365536
21
428.654127
0
LINE
8
1
10
96.365500
20
428.654000
11
96.360420
21
428.649767
0
LINE
8
1
10
96.360500
20
428.650000
11
95.990225
21
428.364109
0
LINE
8
1
10
95.990200
20
428.364000
11
95.985967
21
428.360896
0
LINE
8
1
10
95.986000
20
428.361000
11
95.578471
21
428.086962
0
LINE
8
1
10
95.578400
20
428.087000
11
95.573038
21
428.083613
0
LINE
8
1
10
95.573100
20
428.083000
11
95.127189
21
427.821662
0
LINE
8
1
10
95.127200
20
427.822000
11
95.122967
21
427.820024
0
LINE
8
1
10
95.122900
20
427.820000
11
94.638607
21
427.572491
0
LINE
8
1
10
94.638600
20
427.573000
11
94.635496
21
427.570742
0
LINE
8
1
10
94.635500
20
427.570000
11
94.112825
21
427.334345
0
LINE
8
1
10
94.112900
20
427.335000
11
94.109796
21
427.333871
0
LINE
8
1
10
94.109700
20
427.334000
11
93.549772
21
427.111045
0
LINE
8
1
10
93.549800
20
427.111000
11
93.545284
21
427.109024
0
LINE
8
1
10
93.545300
20
427.109000
11
92.945860
21
426.899873
0
LINE
8
1
10
92.945900
20
426.899000
11
92.943900
21
426.899000
0
LINE
8
1
10
92.943900
20
426.899000
11
92.310312
21
426.701727
0
LINE
8
1
10
92.310300
20
426.702000
11
91.739647
21
426.485536
0
LINE
8
1
10
91.739600
20
426.486000
11
91.736213
21
426.484871
0
LINE
8
1
10
91.736300
20
426.485000
11
91.172138
21
426.302685
0
LINE
8
1
10
91.172100
20
426.302000
11
91.166738
21
426.300871
0
LINE
8
1
10
91.166700
20
426.301000
11
90.608747
21
426.154809
0
LINE
8
1
10
90.608800
20
426.155000
11
90.603438
21
426.153871
0
LINE
8
1
10
90.603400
20
426.154000
11
90.051938
21
426.045345
0
LINE
8
1
10
90.052000
20
426.045000
11
90.047767
21
426.043871
0
LINE
8
1
10
90.047700
20
426.044000
11
89.503858
21
425.971469
0
LINE
8
1
10
89.503900
20
425.972000
11
89.497409
21
425.970871
0
LINE
8
1
10
89.497400
20
425.970000
11
89.046127
21
425.940085
0
LINE
8
1
10
89.040800
20
403.659000
11
87.440800
21
403.659000
0
LINE
8
1
10
87.355600
20
403.744000
11
87.380594
21
403.683658
0
LINE
8
1
10
87.380594
20
403.683658
11
87.440936
21
403.658665
0
LINE
8
1
10
87.355600
20
403.744000
11
87.355600
21
408.011000
0
LINE
8
1
10
87.440900
20
408.096000
11
87.380559
21
408.071008
0
LINE
8
1
10
87.380559
20
408.071008
11
87.355564
21
408.010667
0
LINE
8
1
10
87.440800
20
408.096000
11
97.574300
21
408.096000
0
LINE
8
1
10
97.659500
20
408.011000
11
97.574167
21
408.096333
0
LINE
8
1
10
97.659500
20
408.011000
11
97.659500
21
403.744000
0
LINE
8
1
10
97.574200
20
403.659000
11
97.634540
21
403.683995
0
LINE
8
1
10
97.634540
20
403.683995
11
97.659533
21
403.744336
0
LINE
8
1
10
97.574300
20
403.659000
11
89.040800
21
403.659000
0
LINE
8
1
10
82.023300
20
398.059000
11
92.156500
21
398.059000
0
LINE
8
1
10
92.241900
20
397.974000
11
92.216908
21
398.034341
0
LINE
8
1
10
92.216908
20
398.034341
11
92.156567
21
398.059335
0
LINE
8
1
10
92.242000
20
397.974000
11
92.242000
21
393.707000
0
LINE
8
1
10
92.156600
20
393.622000
11
92.241933
21
393.707333
0
LINE
8
1
10
92.156500
20
393.622000
11
82.023300
21
393.622000
0
LINE
8
1
10
81.938000
20
393.707000
11
82.023333
21
393.621667
0
LINE
8
1
10
81.938100
20
393.707000
11
81.938100
21
397.974000
0
LINE
8
1
10
82.023300
20
398.059000
11
81.962960
21
398.034005
0
LINE
8
1
10
81.962960
20
398.034005
11
81.937967
21
397.973665
0
LINE
8
1
10
52.964000
20
394.029000
11
52.326200
21
394.029000
0
LINE
8
1
10
52.326200
20
394.029000
11
52.326200
21
389.933000
0
LINE
8
1
10
52.326200
20
389.933000
11
56.422100
21
389.933000
0
LINE
8
1
10
56.422100
20
389.933000
11
56.422100
21
394.029000
0
LINE
8
1
10
56.422100
20
394.029000
11
52.964000
21
394.029000
0
LINE
8
1
10
40.851100
20
389.933000
11
41.488900
21
389.933000
0
LINE
8
1
10
41.488900
20
389.933000
11
41.488900
21
394.029000
0
LINE
8
1
10
41.488900
20
394.029000
11
37.393000
21
394.029000
0
LINE
8
1
10
37.393000
20
394.029000
11
37.393000
21
389.933000
0
LINE
8
1
10
37.393000
20
389.933000
11
40.851100
21
389.933000
0
LINE
8
1
10
46.907600
20
365.229000
11
48.944755
21
365.306287
0
LINE
8
1
10
48.944755
20
365.306287
11
50.949230
21
365.535053
0
LINE
8
1
10
50.949230
20
365.535053
11
54.832754
21
366.428485
0
LINE
8
1
10
54.832754
20
366.428485
11
58.503411
21
367.872217
0
LINE
8
1
10
58.503411
20
367.872217
11
61.906438
21
369.829170
0
LINE
8
1
10
61.906438
20
369.829170
11
64.987073
21
372.262263
0
LINE
8
1
10
64.987073
20
372.262263
11
67.690553
21
375.134419
0
LINE
8
1
10
67.690553
20
375.134419
11
69.962116
21
378.408558
0
LINE
8
1
10
69.962116
20
378.408558
11
70.918816
21
380.184783
0
LINE
8
1
10
70.918816
20
380.184783
11
71.747000
21
382.047600
0
LINE
8
1
10
46.737100
20
365.229000
11
46.907379
21
365.229000
0
LINE
8
1
10
20.155600
20
391.981000
11
20.292513
21
389.257754
0
LINE
8
1
10
20.292513
20
389.257754
11
20.694476
21
386.612487
0
LINE
8
1
10
20.694476
20
386.612487
11
21.348246
21
384.058527
0
LINE
8
1
10
21.348246
20
384.058527
11
22.240583
21
381.609200
0
LINE
8
1
10
22.240583
20
381.609200
11
23.358246
21
379.277830
0
LINE
8
1
10
23.358246
20
379.277830
11
24.687993
21
377.077746
0
LINE
8
1
10
24.687993
20
377.077746
11
26.216582
21
375.022272
0
LINE
8
1
10
26.216582
20
375.022272
11
27.930773
21
373.124735
0
LINE
8
1
10
27.930773
20
373.124735
11
29.817324
21
371.398461
0
LINE
8
1
10
29.817324
20
371.398461
11
31.862994
21
369.856776
0
LINE
8
1
10
31.862994
20
369.856776
11
34.054542
21
368.513006
0
LINE
8
1
10
34.054542
20
368.513006
11
36.378726
21
367.380477
0
LINE
8
1
10
36.378726
20
367.380477
11
38.822305
21
366.472517
0
LINE
8
1
10
38.822305
20
366.472517
11
41.372038
21
365.802449
0
LINE
8
1
10
41.372038
20
365.802449
11
44.014683
21
365.383602
0
LINE
8
1
10
44.014683
20
365.383602
11
46.737000
21
365.229300
0
LINE
8
1
10
73.659600
20
391.981000
11
73.521482
21
394.716237
0
LINE
8
1
10
73.521482
20
394.716237
11
73.116094
21
397.372461
0
LINE
8
1
10
73.116094
20
397.372461
11
72.456883
21
399.936226
0
LINE
8
1
10
72.456883
20
399.936226
11
71.557295
21
402.394085
0
LINE
8
1
10
71.557295
20
402.394085
11
70.430778
21
404.732591
0
LINE
8
1
10
70.430778
20
404.732591
11
69.090779
21
406.938297
0
LINE
8
1
10
69.090779
20
406.938297
11
67.550744
21
408.997756
0
LINE
8
1
10
67.550744
20
408.997756
11
65.824121
21
410.897520
0
LINE
8
1
10
65.824121
20
410.897520
11
63.924356
21
412.624143
0
LINE
8
1
10
63.924356
20
412.624143
11
61.864898
21
414.164178
0
LINE
8
1
10
61.864898
20
414.164178
11
59.659192
21
415.504178
0
LINE
8
1
10
59.659192
20
415.504178
11
57.320686
21
416.630695
0
LINE
8
1
10
57.320686
20
416.630695
11
54.862827
21
417.530283
0
LINE
8
1
10
54.862827
20
417.530283
11
52.299061
21
418.189494
0
LINE
8
1
10
52.299061
20
418.189494
11
49.642837
21
418.594882
0
LINE
8
1
10
49.642837
20
418.594882
11
46.907600
21
418.733000
0
LINE
8
1
10
46.907600
20
418.733000
11
44.172364
21
418.594882
0
LINE
8
1
10
44.172364
20
418.594882
11
41.516139
21
418.189494
0
LINE
8
1
10
41.516139
20
418.189494
11
38.952374
21
417.530283
0
LINE
8
1
10
38.952374
20
417.530283
11
36.494515
21
416.630695
0
LINE
8
1
10
36.494515
20
416.630695
11
34.156008
21
415.504178
0
LINE
8
1
10
34.156008
20
415.504178
11
31.950303
21
414.164178
0
LINE
8
1
10
31.950303
20
414.164178
11
29.890844
21
412.624144
0
LINE
8
1
10
29.890844
20
412.624144
11
27.991080
21
410.897520
0
LINE
8
1
10
27.991080
20
410.897520
11
26.264456
21
408.997756
0
LINE
8
1
10
26.264456
20
408.997756
11
24.724422
21
406.938297
0
LINE
8
1
10
24.724422
20
406.938297
11
23.384422
21
404.732592
0
LINE
8
1
10
23.384422
20
404.732592
11
22.257905
21
402.394086
0
LINE
8
1
10
22.257905
20
402.394086
11
21.358317
21
399.936226
0
LINE
8
1
10
21.358317
20
399.936226
11
20.699106
21
397.372461
0
LINE
8
1
10
20.699106
20
397.372461
11
20.293718
21
394.716237
0
LINE
8
1
10
20.293718
20
394.716237
11
20.155600
21
391.981000
0
LINE
8
1
10
71.747000
20
382.048000
11
72.578854
21
384.454455
0
LINE
8
1
10
72.578854
20
384.454455
11
73.177076
21
386.923471
0
LINE
8
1
10
73.177076
20
386.923471
11
73.538403
21
389.438099
0
LINE
8
1
10
73.538403
20
389.438099
11
73.659570
21
391.981390
0
LINE
8
1
10
90.340100
20
377.090000
11
121.179000
21
405.939000
0
LINE
8
1
10
158.807000
20
428.729000
11
153.617705
21
426.757859
0
LINE
8
1
10
153.617705
20
426.757859
11
148.548043
21
424.524423
0
LINE
8
1
10
148.548043
20
424.524423
11
143.607580
21
422.034485
0
LINE
8
1
10
143.607580
20
422.034485
11
138.805880
21
419.293837
0
LINE
8
1
10
138.805880
20
419.293837
11
134.152507
21
416.308272
0
LINE
8
1
10
134.152507
20
416.308272
11
129.657026
21
413.083583
0
LINE
8
1
10
129.657026
20
413.083583
11
125.329003
21
409.625561
0
LINE
8
1
10
125.329003
20
409.625561
11
121.178000
21
405.940000
0
LINE
8
1
10
108.689000
20
487.968000
11
109.677557
21
482.859882
0
LINE
8
1
10
109.677557
20
482.859882
11
111.005611
21
477.875767
0
LINE
8
1
10
111.005611
20
477.875767
11
112.661666
21
473.029246
0
LINE
8
1
10
112.661666
20
473.029246
11
114.634224
21
468.333909
0
LINE
8
1
10
114.634224
20
468.333909
11
116.911787
21
463.803347
0
LINE
8
1
10
116.911787
20
463.803347
11
119.482857
21
459.451148
0
LINE
8
1
10
119.482857
20
459.451148
11
122.335938
21
455.290903
0
LINE
8
1
10
122.335938
20
455.290903
11
125.459531
21
451.336202
0
LINE
8
1
10
125.459531
20
451.336202
11
128.842138
21
447.600636
0
LINE
8
1
10
128.842138
20
447.600636
11
132.472263
21
444.097794
0
LINE
8
1
10
132.472263
20
444.097794
11
136.338406
21
440.841267
0
LINE
8
1
10
136.338406
20
440.841267
11
140.429072
21
437.844644
0
LINE
8
1
10
140.429072
20
437.844644
11
144.732762
21
435.121516
0
LINE
8
1
10
144.732762
20
435.121516
11
149.237978
21
432.685472
0
LINE
8
1
10
149.237978
20
432.685472
11
153.933223
21
430.550104
0
LINE
8
1
10
153.933223
20
430.550104
11
158.807000
21
428.729000
0
LINE
8
1
10
108.774000
20
488.066000
11
108.709123
21
488.036100
0
LINE
8
1
10
108.709123
20
488.036100
11
108.689712
21
487.967352
0
LINE
8
1
10
108.774000
20
488.066000
11
215.441000
21
488.066000
0
LINE
8
1
10
215.526000
20
487.981000
11
215.440667
21
488.066333
0
LINE
8
1
10
215.526000
20
487.981000
11
215.526000
21
432.563000
0
LINE
8
1
10
276.744000
20
395.562000
11
273.759222
21
399.055571
0
LINE
8
1
10
273.759222
20
399.055571
11
270.637359
21
402.406718
0
LINE
8
1
10
270.637359
20
402.406718
11
267.383749
21
405.612216
0
LINE
8
1
10
267.383749
20
405.612216
11
264.003727
21
408.668840
0
LINE
8
1
10
264.003727
20
408.668840
11
260.502631
21
411.573363
0
LINE
8
1
10
260.502631
20
411.573363
11
256.885797
21
414.322561
0
LINE
8
1
10
256.885797
20
414.322561
11
253.158563
21
416.913207
0
LINE
8
1
10
253.158563
20
416.913207
11
249.326265
21
419.342077
0
LINE
8
1
10
249.326265
20
419.342077
11
245.394240
21
421.605944
0
LINE
8
1
10
245.394240
20
421.605944
11
241.367824
21
423.701583
0
LINE
8
1
10
241.367824
20
423.701583
11
237.252356
21
425.625769
0
LINE
8
1
10
237.252356
20
425.625769
11
233.053170
21
427.375276
0
LINE
8
1
10
233.053170
20
427.375276
11
228.775605
21
428.946878
0
LINE
8
1
10
228.775605
20
428.946878
11
224.424997
21
430.337349
0
LINE
8
1
10
224.424997
20
430.337349
11
220.006683
21
431.543465
0
LINE
8
1
10
220.006683
20
431.543465
11
215.526000
21
432.562000
0
LINE
8
1
10
121.179000
20
250.023000
11
125.091808
21
246.536088
0
LINE
8
1
10
125.091808
20
246.536088
11
129.129523
21
243.274143
0
LINE
8
1
10
129.129523
20
243.274143
11
133.283818
21
240.237166
0
LINE
8
1
10
133.283818
20
240.237166
11
137.546366
21
237.425156
0
LINE
8
1
10
137.546366
20
237.425156
11
141.908838
21
234.838113
0
LINE
8
1
10
141.908838
20
234.838113
11
146.362909
21
232.476037
0
LINE
8
1
10
146.362909
20
232.476037
11
150.900249
21
230.338929
0
LINE
8
1
10
150.900249
20
230.338929
11
155.512533
21
228.426787
0
LINE
8
1
10
155.512533
20
228.426787
11
160.191432
21
226.739612
0
LINE
8
1
10
160.191432
20
226.739612
11
164.928620
21
225.277403
0
LINE
8
1
10
164.928620
20
225.277403
11
169.715769
21
224.040161
0
LINE
8
1
10
169.715769
20
224.040161
11
174.544551
21
223.027885
0
LINE
8
1
10
174.544551
20
223.027885
11
179.406639
21
222.240576
0
LINE
8
1
10
179.406639
20
222.240576
11
184.293706
21
221.678233
0
LINE
8
1
10
184.293706
20
221.678233
11
189.197425
21
221.340856
0
LINE
8
1
10
189.197425
20
221.340856
11
194.109467
21
221.228444
0
LINE
8
1
10
194.109467
20
221.228444
11
199.021507
21
221.340999
0
LINE
8
1
10
199.021507
20
221.340999
11
203.925215
21
221.678519
0
LINE
8
1
10
203.925215
20
221.678519
11
208.812266
21
222.241004
0
LINE
8
1
10
208.812266
20
222.241004
11
213.674331
21
223.028455
0
LINE
8
1
10
213.674331
20
223.028455
11
218.503084
21
224.040871
0
LINE
8
1
10
218.503084
20
224.040871
11
223.290197
21
225.278253
0
LINE
8
1
10
223.290197
20
225.278253
11
228.027342
21
226.740599
0
LINE
8
1
10
228.027342
20
226.740599
11
232.706192
21
228.427910
0
LINE
8
1
10
232.706192
20
228.427910
11
237.318420
21
230.340186
0
LINE
8
1
10
237.318420
20
230.340186
11
241.855698
21
232.477427
0
LINE
8
1
10
241.855698
20
232.477427
11
246.309700
21
234.839633
0
LINE
8
1
10
246.309700
20
234.839633
11
250.672097
21
237.426802
0
LINE
8
1
10
250.672097
20
237.426802
11
254.934563
21
240.238936
0
LINE
8
1
10
254.934563
20
240.238936
11
259.088770
21
243.276035
0
LINE
8
1
10
259.088770
20
243.276035
11
263.126390
21
246.538097
0
LINE
8
1
10
263.126390
20
246.538097
11
267.039096
21
250.025123
0
LINE
8
1
10
267.039096
20
250.025123
11
270.778677
21
253.697202
0
LINE
8
1
10
270.778677
20
253.697202
11
274.302101
21
257.508883
0
LINE
8
1
10
274.302101
20
257.508883
11
277.608815
21
261.451856
0
LINE
8
1
10
277.608815
20
261.451856
11
280.698264
21
265.517814
0
LINE
8
1
10
280.698264
20
265.517814
11
283.569895
21
269.698447
0
LINE
8
1
10
283.569895
20
269.698447
11
286.223154
21
273.985447
0
LINE
8
1
10
286.223154
20
273.985447
11
288.657485
21
278.370503
0
LINE
8
1
10
288.657485
20
278.370503
11
290.872337
21
282.845308
0
LINE
8
1
10
290.872337
20
282.845308
11
292.867153
21
287.401553
0
LINE
8
1
10
292.867153
20
287.401553
11
294.641381
21
292.030929
0
LINE
8
1
10
294.641381
20
292.030929
11
296.194466
21
296.725126
0
LINE
8
1
10
296.194466
20
296.725126
11
297.525854
21
301.475836
0
LINE
8
1
10
297.525854
20
301.475836
11
298.634991
21
306.274749
0
LINE
8
1
10
298.634991
20
306.274749
11
299.521323
21
311.113558
0
LINE
8
1
10
299.521323
20
311.113558
11
300.184296
21
315.983953
0
LINE
8
1
10
300.184296
20
315.983953
11
300.623356
21
320.877625
0
LINE
8
1
10
300.623356
20
320.877625
11
300.837948
21
325.786265
0
LINE
8
1
10
300.837948
20
325.786265
11
300.827519
21
330.701565
0
LINE
8
1
10
300.827519
20
330.701565
11
300.591515
21
335.615215
0
LINE
8
1
10
300.591515
20
335.615215
11
300.129381
21
340.518907
0
LINE
8
1
10
300.129381
20
340.518907
11
299.440564
21
345.404331
0
LINE
8
1
10
299.440564
20
345.404331
11
298.524510
21
350.263179
0
LINE
8
1
10
298.524510
20
350.263179
11
297.380663
21
355.087141
0
LINE
8
1
10
297.380663
20
355.087141
11
296.008471
21
359.867910
0
LINE
8
1
10
296.008471
20
359.867910
11
294.407379
21
364.597175
0
LINE
8
1
10
294.407379
20
364.597175
11
292.576833
21
369.266629
0
LINE
8
1
10
292.576833
20
369.266629
11
290.516280
21
373.867961
0
LINE
8
1
10
290.516280
20
373.867961
11
288.225164
21
378.392864
0
LINE
8
1
10
288.225164
20
378.392864
11
285.702932
21
382.833029
0
LINE
8
1
10
285.702932
20
382.833029
11
282.949030
21
387.180145
0
LINE
8
1
10
282.949030
20
387.180145
11
279.962904
21
391.425905
0
LINE
8
1
10
279.962904
20
391.425905
11
276.744000
21
395.562000
0
LINE
8
1
10
121.179000
20
250.024000
11
60.740100
21
306.563000
0
LINE
8
1
10
60.740100
20
306.563000
11
29.841000
21
306.563000
0
LINE
8
1
10
29.755600
20
306.648000
11
29.840933
21
306.562667
0
LINE
8
1
10
29.755500
20
306.648000
11
29.755500
21
317.229000
0
LINE
8
1
10
29.755500
20
317.229000
11
25.659600
21
317.229000
0
LINE
8
1
10
25.659600
20
317.229000
11
25.659600
21
306.648000
0
LINE
8
1
10
25.574300
20
306.563000
11
25.659633
21
306.648333
0
LINE
8
1
10
25.574400
20
306.563000
11
18.107600
21
306.563000
0
LINE
8
1
10
18.022300
20
306.648000
11
18.047295
21
306.587660
0
LINE
8
1
10
18.047295
20
306.587660
11
18.107636
21
306.562667
0
LINE
8
1
10
18.022400
20
306.648000
11
18.022400
21
349.314000
0
LINE
8
1
10
18.107600
20
349.400000
11
18.047258
21
349.375006
0
LINE
8
1
10
18.047258
20
349.375006
11
18.022265
21
349.314665
0
LINE
8
1
10
18.107600
20
349.400000
11
34.107700
21
349.400000
0
LINE
8
1
10
34.192900
20
349.314000
11
34.167908
21
349.374341
0
LINE
8
1
10
34.167908
20
349.374341
11
34.107567
21
349.399336
0
LINE
8
1
10
34.192900
20
349.314000
11
34.192900
21
338.733000
0
LINE
8
1
10
34.192900
20
338.733000
11
38.289100
21
338.733000
0
LINE
8
1
10
38.289100
20
338.733000
11
38.289100
21
349.314000
0
LINE
8
1
10
38.374300
20
349.400000
11
38.313960
21
349.375005
0
LINE
8
1
10
38.313960
20
349.375005
11
38.288967
21
349.314665
0
LINE
8
1
10
38.374300
20
349.400000
11
60.740100
21
349.400000
0
LINE
8
1
10
60.740100
20
349.400000
11
90.340100
21
377.090000
0
LINE
8
1
10
376.882000
20
300.008000
11
377.049358
21
300.633968
0
LINE
8
1
10
377.049000
20
300.634000
11
373.093940
21
301.694310
0
LINE
8
1
10
373.094000
20
301.694000
11
372.032560
21
297.738940
0
LINE
8
1
10
372.033000
20
297.739000
11
375.989190
21
296.677560
0
LINE
8
1
10
375.989000
20
296.678000
11
376.881950
21
300.008220
0
LINE
8
1
10
388.145000
20
297.662000
11
387.518749
21
297.829358
0
LINE
8
1
10
387.518000
20
297.830000
11
386.456850
21
293.873810
0
LINE
8
1
10
386.457000
20
293.874000
11
390.413190
21
292.813690
0
LINE
8
1
10
390.413000
20
292.813000
11
391.473310
21
296.769190
0
LINE
8
1
10
391.474000
20
296.769000
11
388.144910
21
297.661950
0
LINE
8
1
10
397.649000
20
364.828000
11
394.235184
21
365.541051
0
LINE
8
1
10
394.235184
20
365.541051
11
390.796394
21
366.080892
0
LINE
8
1
10
390.796394
20
366.080892
11
387.339187
21
366.447321
0
LINE
8
1
10
387.339187
20
366.447321
11
383.870120
21
366.640140
0
LINE
8
1
10
383.870120
20
366.640140
11
380.395751
21
366.659147
0
LINE
8
1
10
380.395751
20
366.659147
11
376.922636
21
366.504143
0
LINE
8
1
10
376.922636
20
366.504143
11
373.457333
21
366.174928
0
LINE
8
1
10
373.457333
20
366.174928
11
370.006400
21
365.671302
0
LINE
8
1
10
397.712000
20
364.723000
11
397.702813
21
364.788883
0
LINE
8
1
10
397.702813
20
364.788883
11
397.649121
21
364.828153
0
LINE
8
1
10
397.711000
20
364.723000
11
393.600150
21
349.383100
0
LINE
8
1
10
393.601000
20
349.383000
11
397.557190
21
348.322690
0
LINE
8
1
10
397.557000
20
348.322000
11
401.668130
21
363.663000
0
LINE
8
1
10
401.775000
20
363.723000
11
401.708859
21
363.715848
0
LINE
8
1
10
401.708859
20
363.715848
11
401.667953
21
363.663383
0
LINE
8
1
10
432.166000
20
249.530000
11
435.149434
21
252.892730
0
LINE
8
1
10
435.149434
20
252.892730
11
437.889427
21
256.414261
0
LINE
8
1
10
437.889427
20
256.414261
11
440.382671
21
260.081588
0
LINE
8
1
10
440.382671
20
260.081588
11
442.625861
21
263.881707
0
LINE
8
1
10
442.625861
20
263.881707
11
444.615692
21
267.801613
0
LINE
8
1
10
444.615692
20
267.801613
11
446.348856
21
271.828302
0
LINE
8
1
10
446.348856
20
271.828302
11
447.822049
21
275.948769
0
LINE
8
1
10
447.822049
20
275.948769
11
449.031964
21
280.150009
0
LINE
8
1
10
449.031964
20
280.150009
11
449.975295
21
284.419018
0
LINE
8
1
10
449.975295
20
284.419018
11
450.648737
21
288.742792
0
LINE
8
1
10
450.648737
20
288.742792
11
451.048983
21
293.108326
0
LINE
8
1
10
451.048983
20
293.108326
11
451.172728
21
297.502615
0
LINE
8
1
10
451.172728
20
297.502615
11
451.016666
21
301.912654
0
LINE
8
1
10
451.016666
20
301.912654
11
450.577490
21
306.325440
0
LINE
8
1
10
450.577490
20
306.325440
11
449.851896
21
310.727968
0
LINE
8
1
10
449.851896
20
310.727968
11
448.836576
21
315.107233
0
LINE
8
1
10
448.836576
20
315.107233
11
447.540701
21
319.411829
0
LINE
8
1
10
447.540701
20
319.411829
11
445.981868
21
323.592592
0
LINE
8
1
10
445.981868
20
323.592592
11
444.169410
21
327.639881
0
LINE
8
1
10
444.169410
20
327.639881
11
442.112658
21
331.544056
0
LINE
8
1
10
442.112658
20
331.544056
11
439.820948
21
335.295475
0
LINE
8
1
10
439.820948
20
335.295475
11
437.303610
21
338.884499
0
LINE
8
1
10
437.303610
20
338.884499
11
434.569978
21
342.301486
0
LINE
8
1
10
434.569978
20
342.301486
11
431.629385
21
345.536796
0
LINE
8
1
10
431.629385
20
345.536796
11
428.491165
21
348.580787
0
LINE
8
1
10
428.491165
20
348.580787
11
425.164649
21
351.423820
0
LINE
8
1
10
425.164649
20
351.423820
11
421.659171
21
354.056253
0
LINE
8
1
10
421.659171
20
354.056253
11
417.984064
21
356.468446
0
LINE
8
1
10
417.984064
20
356.468446
11
414.148660
21
358.650758
0
LINE
8
1
10
414.148660
20
358.650758
11
410.162293
21
360.593548
0
LINE
8
1
10
410.162293
20
360.593548
11
406.034295
21
362.287176
0
LINE
8
1
10
406.034295
20
362.287176
11
401.774000
21
363.722000
0
LINE
8
1
10
443.926000
20
219.859000
11
444.407676
21
222.002912
0
LINE
8
1
10
444.407676
20
222.002912
11
444.709519
21
224.152652
0
LINE
8
1
10
444.709519
20
224.152652
11
444.835302
21
226.298700
0
LINE
8
1
10
444.835302
20
226.298700
11
444.788798
21
228.431538
0
LINE
8
1
10
444.788798
20
228.431538
11
444.573781
21
230.541645
0
LINE
8
1
10
444.573781
20
230.541645
11
444.194023
21
232.619502
0
LINE
8
1
10
444.194023
20
232.619502
11
443.653297
21
234.655590
0
LINE
8
1
10
443.653297
20
234.655590
11
442.955377
21
236.640388
0
LINE
8
1
10
442.955377
20
236.640388
11
442.104036
21
238.564377
0
LINE
8
1
10
442.104036
20
238.564377
11
441.103047
21
240.418037
0
LINE
8
1
10
441.103047
20
240.418037
11
439.956183
21
242.191849
0
LINE
8
1
10
439.956183
20
242.191849
11
438.667218
21
243.876294
0
LINE
8
1
10
438.667218
20
243.876294
11
437.239923
21
245.461850
0
LINE
8
1
10
437.239923
20
245.461850
11
435.678074
21
246.939000
0
LINE
8
1
10
435.678074
20
246.939000
11
433.985441
21
248.298223
0
LINE
8
1
10
433.985441
20
248.298223
11
432.165800
21
249.530000
0
LINE
8
1
10
443.926000
20
219.859000
11
431.972000
21
175.244000
0
LINE
8
1
10
431.829000
20
175.206000
11
431.911410
21
175.183924
0
LINE
8
1
10
431.911410
20
175.183924
11
431.971748
21
175.244241
0
LINE
8
1
10
431.829000
20
175.205000
11
399.169000
21
207.866000
0
LINE
8
1
10
391.390000
20
228.507000
11
391.358764
21
225.638575
0
LINE
8
1
10
391.358764
20
225.638575
11
391.631286
21
222.807507
0
LINE
8
1
10
391.631286
20
222.807507
11
392.199079
21
220.036312
0
LINE
8
1
10
392.199079
20
220.036312
11
393.053658
21
217.347502
0
LINE
8
1
10
393.053658
20
217.347502
11
394.186535
21
214.763592
0
LINE
8
1
10
394.186535
20
214.763592
11
395.589226
21
212.307095
0
LINE
8
1
10
395.589226
20
212.307095
11
397.253243
21
210.000527
0
LINE
8
1
10
397.253243
20
210.000527
11
399.170100
21
207.866400
0
LINE
8
1
10
339.035000
20
242.535000
11
341.862052
21
240.440943
0
LINE
8
1
10
341.862052
20
240.440943
11
344.778012
21
238.501269
0
LINE
8
1
10
344.778012
20
238.501269
11
347.776544
21
236.717676
0
LINE
8
1
10
347.776544
20
236.717676
11
350.851311
21
235.091862
0
LINE
8
1
10
350.851311
20
235.091862
11
353.995975
21
233.625525
0
LINE
8
1
10
353.995975
20
233.625525
11
357.204202
21
232.320363
0
LINE
8
1
10
357.204202
20
232.320363
11
360.469653
21
231.178074
0
LINE
8
1
10
360.469653
20
231.178074
11
363.785993
21
230.200355
0
LINE
8
1
10
363.785993
20
230.200355
11
367.146885
21
229.388905
0
LINE
8
1
10
367.146885
20
229.388905
11
370.545992
21
228.745422
0
LINE
8
1
10
370.545992
20
228.745422
11
373.976977
21
228.271603
0
LINE
8
1
10
373.976977
20
228.271603
11
377.433504
21
227.969146
0
LINE
8
1
10
377.433504
20
227.969146
11
380.909237
21
227.839750
0
LINE
8
1
10
380.909237
20
227.839750
11
384.397838
21
227.885111
0
LINE
8
1
10
384.397838
20
227.885111
11
387.892971
21
228.106929
0
LINE
8
1
10
387.892971
20
228.106929
11
391.388300
21
228.506900
0
LINE
8
1
10
321.977000
20
228.549000
11
324.704147
21
229.438793
0
LINE
8
1
10
324.704147
20
229.438793
11
327.298544
21
230.604352
0
LINE
8
1
10
327.298544
20
230.604352
11
329.741585
21
232.030422
0
LINE
8
1
10
329.741585
20
232.030422
11
332.014662
21
233.701747
0
LINE
8
1
10
332.014662
20
233.701747
11
334.099170
21
235.603073
0
LINE
8
1
10
334.099170
20
235.603073
11
335.976500
21
237.719144
0
LINE
8
1
10
335.976500
20
237.719144
11
337.628045
21
240.034705
0
LINE
8
1
10
337.628045
20
240.034705
11
339.035200
21
242.534500
0
LINE
8
1
10
321.977000
20
228.550000
11
277.362800
21
216.595600
0
LINE
8
1
10
277.259000
20
216.700000
11
277.281089
21
216.617578
0
LINE
8
1
10
277.281089
20
216.617578
11
277.363512
21
216.595493
0
LINE
8
1
10
277.258000
20
216.700000
11
289.213200
21
261.313400
0
LINE
8
1
10
314.234000
20
281.129000
11
312.042254
21
280.972100
0
LINE
8
1
10
312.042254
20
280.972100
11
309.896776
21
280.641324
0
LINE
8
1
10
309.896776
20
280.641324
11
307.805592
21
280.143028
0
LINE
8
1
10
307.805592
20
280.143028
11
305.776732
21
279.483570
0
LINE
8
1
10
305.776732
20
279.483570
11
303.818222
21
278.669308
0
LINE
8
1
10
303.818222
20
278.669308
11
301.938089
21
277.706599
0
LINE
8
1
10
301.938089
20
277.706599
11
300.144362
21
276.601801
0
LINE
8
1
10
300.144362
20
276.601801
11
298.445068
21
275.361271
0
LINE
8
1
10
298.445068
20
275.361271
11
296.848234
21
273.991367
0
LINE
8
1
10
296.848234
20
273.991367
11
295.361888
21
272.498447
0
LINE
8
1
10
295.361888
20
272.498447
11
293.994058
21
270.888867
0
LINE
8
1
10
293.994058
20
270.888867
11
292.752770
21
269.168986
0
LINE
8
1
10
292.752770
20
269.168986
11
291.646053
21
267.345162
0
LINE
8
1
10
291.646053
20
267.345162
11
290.681934
21
265.423751
0
LINE
8
1
10
290.681934
20
265.423751
11
289.868441
21
263.411111
0
LINE
8
1
10
289.868441
20
263.411111
11
289.213600
21
261.313600
0
LINE
8
1
10
370.006000
20
365.671000
11
366.486990
21
364.972852
0
LINE
8
1
10
366.486990
20
364.972852
11
363.025054
21
364.098465
0
LINE
8
1
10
363.025054
20
364.098465
11
359.626009
21
363.051640
0
LINE
8
1
10
359.626009
20
363.051640
11
356.295671
21
361.836178
0
LINE
8
1
10
356.295671
20
361.836178
11
353.039854
21
360.455880
0
LINE
8
1
10
353.039854
20
360.455880
11
349.864376
21
358.914546
0
LINE
8
1
10
349.864376
20
358.914546
11
346.775052
21
357.215976
0
LINE
8
1
10
346.775052
20
357.215976
11
343.777698
21
355.363972
0
LINE
8
1
10
343.777698
20
355.363972
11
340.878130
21
353.362334
0
LINE
8
1
10
340.878130
20
353.362334
11
338.082163
21
351.214863
0
LINE
8
1
10
338.082163
20
351.214863
11
335.395614
21
348.925359
0
LINE
8
1
10
335.395614
20
348.925359
11
332.824299
21
346.497624
0
LINE
8
1
10
332.824299
20
346.497624
11
330.374033
21
343.935457
0
LINE
8
1
10
330.374033
20
343.935457
11
328.050632
21
341.242660
0
LINE
8
1
10
328.050632
20
341.242660
11
325.859911
21
338.423033
0
LINE
8
1
10
325.859911
20
338.423033
11
323.807688
21
335.480377
0
LINE
8
1
10
323.807688
20
335.480377
11
321.910053
21
332.435739
0
LINE
8
1
10
321.910053
20
332.435739
11
320.180021
21
329.312193
0
LINE
8
1
10
320.180021
20
329.312193
11
318.618798
21
326.116581
0
LINE
8
1
10
318.618798
20
326.116581
11
317.227591
21
322.855746
0
LINE
8
1
10
317.227591
20
322.855746
11
316.007604
21
319.536530
0
LINE
8
1
10
316.007604
20
319.536530
11
314.960042
21
316.165776
0
LINE
8
1
10
314.960042
20
316.165776
11
314.086110
21
312.750325
0
LINE
8
1
10
314.086110
20
312.750325
11
313.387015
21
309.297019
0
LINE
8
1
10
313.387015
20
309.297019
11
312.863962
21
305.812702
0
LINE
8
1
10
312.863962
20
305.812702
11
312.518155
21
302.304216
0
LINE
8
1
10
312.518155
20
302.304216
11
312.350801
21
298.778402
0
LINE
8
1
10
312.350801
20
298.778402
11
312.363104
21
295.242102
0
LINE
8
1
10
312.363104
20
295.242102
11
312.556270
21
291.702160
0
LINE
8
1
10
312.556270
20
291.702160
11
312.931505
21
288.165418
0
LINE
8
1
10
312.931505
20
288.165418
11
313.490013
21
284.638717
0
LINE
8
1
10
313.490013
20
284.638717
11
314.233000
21
281.128900
0
LINE
8
1
10
311.983000
20
382.104000
11
315.014540
21
379.711824
0
LINE
8
1
10
315.014540
20
379.711824
11
318.163735
21
377.520067
0
LINE
8
1
10
318.163735
20
377.520067
11
321.420786
21
375.530953
0
LINE
8
1
10
321.420786
20
375.530953
11
324.775895
21
373.746709
0
LINE
8
1
10
324.775895
20
373.746709
11
328.219262
21
372.169561
0
LINE
8
1
10
328.219262
20
372.169561
11
331.741089
21
370.801733
0
LINE
8
1
10
331.741089
20
370.801733
11
335.331576
21
369.645453
0
LINE
8
1
10
335.331576
20
369.645453
11
338.980926
21
368.702946
0
LINE
8
1
10
338.980926
20
368.702946
11
342.679339
21
367.976437
0
LINE
8
1
10
342.679339
20
367.976437
11
346.417017
21
367.468153
0
LINE
8
1
10
346.417017
20
367.468153
11
350.184160
21
367.180319
0
LINE
8
1
10
350.184160
20
367.180319
11
353.970969
21
367.115160
0
LINE
8
1
10
353.970969
20
367.115160
11
357.767647
21
367.274903
0
LINE
8
1
10
357.767647
20
367.274903
11
361.564394
21
367.661774
0
LINE
8
1
10
361.564394
20
367.661774
11
365.351411
21
368.277997
0
LINE
8
1
10
365.351411
20
368.277997
11
369.118900
21
369.125800
0
LINE
8
1
10
311.983000
20
382.104000
11
295.641800
21
395.817200
0
LINE
8
1
10
276.439000
20
466.343000
11
274.954927
21
461.585042
0
LINE
8
1
10
274.954927
20
461.585042
11
273.854476
21
456.779237
0
LINE
8
1
10
273.854476
20
456.779237
11
273.132133
21
451.945840
0
LINE
8
1
10
273.132133
20
451.945840
11
272.782383
21
447.105106
0
LINE
8
1
10
272.782383
20
447.105106
11
272.799712
21
442.277289
0
LINE
8
1
10
272.799712
20
442.277289
11
273.178605
21
437.482644
0
LINE
8
1
10
273.178605
20
437.482644
11
273.913548
21
432.741424
0
LINE
8
1
10
273.913548
20
432.741424
11
274.999027
21
428.073885
0
LINE
8
1
10
274.999027
20
428.073885
11
276.429527
21
423.500280
0
LINE
8
1
10
276.429527
20
423.500280
11
278.199533
21
419.040865
0
LINE
8
1
10
278.199533
20
419.040865
11
280.303531
21
414.715894
0
LINE
8
1
10
280.303531
20
414.715894
11
282.736008
21
410.545621
0
LINE
8
1
10
282.736008
20
410.545621
11
285.491447
21
406.550300
0
LINE
8
1
10
285.491447
20
406.550300
11
288.564335
21
402.750187
0
LINE
8
1
10
288.564335
20
402.750187
11
291.949158
21
399.165536
0
LINE
8
1
10
291.949158
20
399.165536
11
295.640400
21
395.816600
0
LINE
8
1
10
262.441000
20
472.409000
11
265.581744
21
470.139975
0
LINE
8
1
10
265.581744
20
470.139975
11
268.998974
21
468.356422
0
LINE
8
1
10
268.998974
20
468.356422
11
272.637043
21
467.082459
0
LINE
8
1
10
272.637043
20
467.082459
11
276.440300
21
466.342200
0
LINE
8
1
10
262.429000
20
472.530000
11
262.409364
21
472.467709
0
LINE
8
1
10
262.409364
20
472.467709
11
262.439527
21
472.409779
0
LINE
8
1
10
262.430000
20
472.529000
11
296.712000
21
513.386000
0
LINE
8
1
10
296.832000
20
513.397000
11
296.711802
21
513.386484
0
LINE
8
1
10
305.238000
20
500.663000
11
303.848517
21
504.280088
0
LINE
8
1
10
303.848517
20
504.280088
11
301.962081
21
507.641798
0
LINE
8
1
10
301.962081
20
507.641798
11
299.612109
21
510.697509
0
LINE
8
1
10
299.612109
20
510.697509
11
296.832020
21
513.396600
0
LINE
8
1
10
378.028000
20
494.000000
11
374.088937
21
497.053695
0
LINE
8
1
10
374.088937
20
497.053695
11
369.970941
21
499.764685
0
LINE
8
1
10
369.970941
20
499.764685
11
365.694919
21
502.131058
0
LINE
8
1
10
365.694919
20
502.131058
11
361.281775
21
504.150899
0
LINE
8
1
10
361.281775
20
504.150899
11
356.752415
21
505.822295
0
LINE
8
1
10
356.752415
20
505.822295
11
352.127743
21
507.143333
0
LINE
8
1
10
352.127743
20
507.143333
11
347.428664
21
508.112099
0
LINE
8
1
10
347.428664
20
508.112099
11
342.676084
21
508.726678
0
LINE
8
1
10
342.676084
20
508.726678
11
337.890907
21
508.985159
0
LINE
8
1
10
337.890907
20
508.985159
11
333.094040
21
508.885627
0
LINE
8
1
10
333.094040
20
508.885627
11
328.306385
21
508.426168
0
LINE
8
1
10
328.306385
20
508.426168
11
323.548850
21
507.604869
0
LINE
8
1
10
323.548850
20
507.604869
11
318.842339
21
506.419816
0
LINE
8
1
10
318.842339
20
506.419816
11
314.207757
21
504.869096
0
LINE
8
1
10
314.207757
20
504.869096
11
309.666009
21
502.950795
0
LINE
8
1
10
309.666009
20
502.950795
11
305.238000
21
500.663000
0
LINE
8
1
10
378.027000
20
494.000000
11
394.368200
21
480.286900
0
LINE
8
1
10
403.614000
20
391.661000
11
405.538479
21
394.245453
0
LINE
8
1
10
405.538479
20
394.245453
11
407.314621
21
396.894948
0
LINE
8
1
10
407.314621
20
396.894948
11
408.942978
21
399.604175
0
LINE
8
1
10
408.942978
20
399.604175
11
410.424105
21
402.367824
0
LINE
8
1
10
410.424105
20
402.367824
11
411.758555
21
405.180585
0
LINE
8
1
10
411.758555
20
405.180585
11
412.946883
21
408.037149
0
LINE
8
1
10
412.946883
20
408.037149
11
414.887387
21
413.860442
0
LINE
8
1
10
414.887387
20
413.860442
11
416.250047
21
419.795225
0
LINE
8
1
10
416.250047
20
419.795225
11
417.039296
21
425.799018
0
LINE
8
1
10
417.039296
20
425.799018
11
417.259564
21
431.829341
0
LINE
8
1
10
417.259564
20
431.829341
11
416.915283
21
437.843715
0
LINE
8
1
10
416.915283
20
437.843715
11
416.010883
21
443.799661
0
LINE
8
1
10
416.010883
20
443.799661
11
414.550797
21
449.654698
0
LINE
8
1
10
414.550797
20
449.654698
11
412.539454
21
455.366348
0
LINE
8
1
10
412.539454
20
455.366348
11
409.981287
21
460.892131
0
LINE
8
1
10
409.981287
20
460.892131
11
406.880727
21
466.189567
0
LINE
8
1
10
406.880727
20
466.189567
11
405.128435
21
468.739380
0
LINE
8
1
10
405.128435
20
468.739380
11
403.242205
21
471.216177
0
LINE
8
1
10
403.242205
20
471.216177
11
401.222593
21
473.614647
0
LINE
8
1
10
401.222593
20
473.614647
11
399.070152
21
475.929481
0
LINE
8
1
10
399.070152
20
475.929481
11
396.785437
21
478.155369
0
LINE
8
1
10
396.785437
20
478.155369
11
394.369000
21
480.287000
0
LINE
8
1
10
403.492000
20
391.649000
11
403.555701
21
391.629500
0
LINE
8
1
10
403.555701
20
391.629500
11
403.614005
21
391.661728
0
LINE
8
1
10
403.493000
20
391.649000
11
403.493000
21
391.649000
0
LINE
8
1
10
403.492000
20
391.649000
11
395.413960
21
398.426560
0
LINE
8
1
10
395.414000
20
398.427000
11
392.781430
21
395.290100
0
LINE
8
1
10
392.781000
20
395.290000
11
400.859040
21
388.511310
0
LINE
8
1
10
400.868000
20
388.389000
11
400.889576
21
388.452045
0
LINE
8
1
10
400.889576
20
388.452045
11
400.859251
21
388.511380
0
LINE
8
1
10
369.119000
20
369.125000
11
373.654403
21
370.470164
0
LINE
8
1
10
373.654403
20
370.470164
11
378.060488
21
372.138783
0
LINE
8
1
10
378.060488
20
372.138783
11
382.320945
21
374.120962
0
LINE
8
1
10
382.320945
20
374.120962
11
386.419465
21
376.406804
0
LINE
8
1
10
386.419465
20
376.406804
11
390.339740
21
378.986415
0
LINE
8
1
10
390.339740
20
378.986415
11
394.065461
21
381.849898
0
LINE
8
1
10
394.065461
20
381.849898
11
397.580317
21
384.987358
0
LINE
8
1
10
397.580317
20
384.987358
11
400.868000
21
388.388900
 0 
ENDSEC
 0 
EOF